<?xml version="1.0" encoding="utf-8"?>
<!-- Generator: Adobe Illustrator 21.1.0, SVG Export Plug-In . SVG Version: 6.00 Build 0)  -->
<svg version="1.1" id="youtube" xmlns="http://www.w3.org/2000/svg" xmlns:xlink="http://www.w3.org/1999/xlink" x="0px" y="0px"
	 viewBox="0 0 267 172" style="enable-background:new 0 0 267 172;" xml:space="preserve">
<style type="text/css">
	.st0{fill:#2F5572;}
	.st1{fill:#FFFFFF;}
	.st2{fill:#D4953D;}
	.st3{fill:#D4953F;}
	.st4{fill:#D4953E;}
	.st5{fill:#FCFAFB;}
</style>
<title>clear-view-escapes</title>
<title>comment</title>
<path class="st0" d="M203.1,0.1c-0.4,0-0.7,0.2-0.7,0.6v0.1v46.5c0,0.4,0.3,0.7,0.7,0.7l0,0h47.3l16,16V0.7c0-0.4-0.2-0.7-0.6-0.7
	h-0.1L203.1,0.1L203.1,0.1z"/>
<title>facebook</title>
<path class="st1" d="M85.2,59.8v6.7h-3.8c-1-0.1-2.1,0.2-2.8,0.9c-0.5,0.8-0.8,1.8-0.7,2.7v4.8H85l-1,7.5h-6.2v19.1h-7.5V82.4H64
	v-7.5h6.3v-5.5c0-3.1,0.9-5.6,2.6-7.3c1.8-1.8,4.3-2.7,6.8-2.6C81.5,59.5,83.4,59.6,85.2,59.8z"/>
<title>Untitled-2</title>
<path class="st2" d="M16,107.5c8,16-16,24-16,40s16,24,16,24c-7.8-15.8,16-24,16-40S16,107.5,16,107.5z M40,131.5c8,16-16,24-16,40
	h24c3.2,0,8-4,8-16C56,139.5,40,131.5,40,131.5z"/>
<title>globe</title>
<path class="st3" d="M88,107.5c-17.7,0-32,14.3-32,32s14.3,32,32,32s32-14.3,32-32S105.7,107.5,88,107.5z M88,115.5
	c2.6,0.1,5.1,0.6,7.5,1.5c-1.7,1.6-3.6,3-3.3,4.5c0.3,1.5,5.5,1,5.5,4c0,2.2-3.4,2.8-1,5.3c2.8,2.8-5.1,7.8-5.3,11.5
	c-0.2,6.6,6.7,7.8,12.2,7.8c3.4,0,4.2,1.6,4,3.5c-4.6,6.3-11.9,10.1-19.8,10c-2.9,0-5.8-0.6-8.5-1.8c1.8-3.5-2.2-10.5-6-12.7
	c-1.8-1.8-5.8-1.1-8-2c-0.8-2.2-1.3-4.4-1.5-6.7c0.3-0.5,0.8-0.7,1.3-0.7c1.5,0,3.6,3,4.7,2.7c1.4-0.3-6-10.5-2.5-12.5
	c1.6-1,4.8,3.1,3.8-1.3c-1-4.1,2.9-2.2,5.3-3.3c2.1-0.9,3.6-3.3,1-4.7c-0.7-0.4-1.2-0.9-1.8-1.5C79.4,116.9,83.7,115.6,88,115.5
	L88,115.5z M106.5,124.3c1.4,1.8,2.6,3.7,3.5,5.8v0.2c-0.5,0.6-1.1,1.2-1.8,1.8c-2.2,2.2-2.6-1.7-3.5-2.5c-1-1-4.8,0.2-5.3-1
	C98.9,127.1,103.4,125.1,106.5,124.3z"/>
<title>instagram</title>
<path class="st1" d="M179.6,99.5V81.8H176c0.4,1.2,0.6,2.4,0.6,3.6c0,2.2-0.6,4.4-1.8,6.4c-1.2,1.9-2.8,3.5-4.8,4.6
	s-4.3,1.7-6.6,1.7c-3.4,0-6.8-1.3-9.2-3.7c-2.5-2.3-3.9-5.6-3.8-9c0-1.2,0.1-2.4,0.5-3.6H147v17.8c0,0.9,0.7,1.6,1.6,1.7l0,0H178
	c0.4,0,0.9-0.2,1.2-0.5C179.5,100.4,179.7,99.9,179.6,99.5z M171.9,84.9c0-2.2-0.9-4.3-2.5-5.8c-1.6-1.6-3.8-2.4-6-2.4
	s-4.3,0.8-5.9,2.4c-1.6,1.5-2.5,3.6-2.5,5.8c0,2.2,0.9,4.3,2.5,5.8c1.6,1.6,3.7,2.4,5.9,2.4s4.4-0.8,6-2.4
	C171,89.2,171.9,87.1,171.9,84.9z M179.6,75.1v-4.5c0-0.5-0.2-1-0.5-1.3c-0.3-0.4-0.8-0.6-1.3-0.6H173c-0.5,0-1,0.2-1.3,0.6
	c-0.3,0.3-0.5,0.8-0.5,1.3v4.5c0,1,0.8,1.9,1.8,1.9l0,0h4.8C178.8,77,179.7,76.1,179.6,75.1L179.6,75.1L179.6,75.1z M184.4,69.4
	v31.2c0,3-2.4,5.4-5.4,5.4h-31.2c-1.4,0-2.8-0.6-3.8-1.6s-1.6-2.4-1.6-3.8V69.4c0-1.4,0.6-2.8,1.6-3.8s2.4-1.6,3.8-1.6H179
	c1.4,0,2.8,0.6,3.8,1.6S184.4,68,184.4,69.4z"/>
<title>mail</title>
<path class="st0" d="M0,59.5v8l32,16l32-16v-8H0z M0,75.5v32h64v-32l-32,16L0,75.5z"/>
<title>rain</title>
<path class="st3" d="M238.4,64c-9.6,0-17.9,6.6-20,16c-8.8,0-16,7.2-16,16c0,4,1.5,7.8,4.3,10.7c2.2-1.8,4.9-2.8,7.7-2.7
	c1.5,0,3.1,0.3,4.5,1c1.4-5.3,6.1-9,11.5-9c5.4,0.1,10.1,3.8,11.5,9c1.4-0.6,2.9-1,4.5-1c4.9,0,9.2,3,11,7.5c5.2-1.4,8.9-6.1,9-11.5
	c0-5.2-3.4-10.3-8-12v-4C258.4,73,249.4,64,238.4,64z M229.1,104c-1.7,0.6-2.8,2.2-2.7,4v16c0,2.2,1.8,4,4,4s4-1.8,4-4v-16
	c0-2.2-1.7-4-3.9-4.1c-0.3,0-0.5,0-0.8,0.1C229.6,104,229.1,104,229.1,104z M213.1,112c-1.7,0.6-2.8,2.2-2.7,4v8c0,2.2,1.8,4,4,4
	s4-1.8,4-4v-8c0-2.2-1.7-4-3.9-4.1c-0.3,0-0.5,0-0.8,0.1H213.1L213.1,112z M245.1,112c-1.7,0.6-2.8,2.2-2.7,4v8c0,2.2,1.8,4,4,4
	s4-1.8,4-4v-8c0-2.2-1.7-4-3.9-4.1c-0.3,0-0.5,0-0.8,0.1H245.1L245.1,112z"/>
<title>star</title>
<path class="st3" d="M152,107.5l-8,24h-24l20,16l-8,24l20-16l20,16l-8-24l20-16h-24L152,107.5z"/>
<title>twitter</title>
<path class="st1" d="M254.2,133c-1.4,2.1-3.2,4-5.3,5.5v1.4c0,2.9-0.4,5.8-1.3,8.5c-0.9,2.9-2.1,5.6-3.8,8.1
	c-1.7,2.6-3.7,4.9-6.1,6.9c-2.5,2.1-5.4,3.7-8.5,4.8c-3.4,1.2-7,1.8-10.6,1.8c-5.8,0-11.4-1.6-16.3-4.8c0.9,0.1,1.7,0.1,2.6,0.1
	c4.8,0,9.4-1.6,13.2-4.5c-4.5-0.1-8.5-3-9.9-7.4c0.7,0.1,1.3,0.2,2,0.2c0.9,0,1.9-0.1,2.8-0.4c-2.4-0.5-4.6-1.8-6.1-3.7
	c-1.6-1.9-2.4-4.3-2.4-6.8v-0.1c1.5,0.8,3.1,1.3,4.8,1.3c-1.4-1-2.6-2.3-3.4-3.8c-0.9-1.6-1.3-3.3-1.3-5.1c0-1.9,0.5-3.7,1.4-5.3
	c2.7,3.3,6,5.9,9.7,7.8c3.8,1.9,7.9,3,12.2,3.2c-0.2-0.8-0.3-1.6-0.3-2.4c-0.1-2.8,1-5.5,3-7.5c4.1-4.1,10.9-4.1,15,0l0.2,0.2
	c2.4-0.4,4.7-1.3,6.9-2.5c-0.8,2.5-2.4,4.6-4.7,5.8C250.2,134.4,252.2,133.9,254.2,133z"/>
<title>wifi</title>
<path class="st4" d="M172.3,0c-10.6,0-21,3-29.9,8.7l4.2,6.5c7.7-4.8,16.6-7.4,25.7-7.3c9.2-0.1,18.2,2.4,25.9,7.3l4.2-6.5
	C193.4,3,182.9,0,172.3,0z M172.3,24c-6,0-11.9,1.7-17,5l4.2,6.7c3.8-2.5,8.2-3.7,12.7-3.7c4.6,0,9.1,1.3,13,3.8l4.2-6.8
	C184.3,25.7,178.3,24,172.3,24L172.3,24L172.3,24z M172.3,48c-4.4,0-8,3.6-8,8s3.6,8,8,8s8-3.6,8-8l0,0
	C180.3,51.6,176.7,48,172.3,48z"/>
<title>youtube</title>
<path class="st1" d="M107.4,88.7v5c0,1-0.3,1.6-0.9,1.6c-0.4,0-0.8-0.2-1.1-0.5v-7.1c0.3-0.3,0.6-0.5,1.1-0.5
	C107.1,87.1,107.4,87.6,107.4,88.7z M115.3,88.7v1.1h-2.1v-1.1c0-1.1,0.4-1.6,1.1-1.6C114.9,87.1,115.3,87.6,115.3,88.7L115.3,88.7z
	 M92.7,83.5h2.5v-2.1h-7.3v2.2h2.5v13.3h2.3V83.5z M99.4,96.9h2.1V85.3h-2.1v8.9c-0.3,0.5-0.7,0.9-1.3,1c-0.3,0-0.5-0.2-0.5-0.5l0,0
	c0-0.3,0-0.5,0-0.8v-8.6h-2.1v9.2c0,0.6,0,1.2,0.2,1.7c0.2,0.6,0.8,0.9,1.4,0.9c1-0.1,1.8-0.6,2.4-1.4
	C99.4,95.7,99.4,96.9,99.4,96.9z M109.5,93.5v-4.6c0-0.8,0-1.6-0.2-2.3c-0.2-0.8-0.9-1.3-1.7-1.3c-0.9,0.1-1.7,0.6-2.2,1.3v-5.1
	h-2.1V97h2.1v-1.1c0.5,0.7,1.3,1.2,2.2,1.3c0.8,0,1.5-0.5,1.7-1.3C109.4,95,109.5,94.2,109.5,93.5L109.5,93.5z M117.4,93.2v-0.3
	h-2.1c0,0.5,0,1,0,1.4c0,0.5-0.4,0.9-0.9,0.8c-0.7,0-1.1-0.5-1.1-1.6v-2.1h4.2V89c0.1-1-0.2-1.9-0.7-2.7c-1.1-1.4-3.1-1.6-4.5-0.5
	c-0.2,0.1-0.4,0.3-0.5,0.5c-0.5,0.8-0.7,1.8-0.7,2.7v4.1c-0.1,1,0.1,1.9,0.7,2.7c0.6,0.8,1.5,1.2,2.5,1.2c1.5,0.1,2.8-1,3-2.5
	C117.3,94.1,117.3,93.7,117.4,93.2L117.4,93.2z M103.1,71.8v-4.9c0-1.1-0.3-1.6-1-1.6s-1,0.5-1,1.6v4.9c0,1.1,0.3,1.6,1,1.6
	S103.1,72.9,103.1,71.8z M120,89.4c0.1,2.7-0.1,5.5-0.6,8.2c-0.2,0.9-0.7,1.7-1.4,2.3c-0.7,0.6-1.5,1-2.4,1.1
	c-4.3,0.4-8.7,0.6-13,0.5c-4.3,0.1-8.7-0.1-13-0.5c-0.9-0.1-1.7-0.5-2.4-1.1c-0.7-0.6-1.2-1.4-1.4-2.3c-0.5-2.7-0.7-5.5-0.6-8.2
	c-0.1-2.7,0.1-5.5,0.6-8.2c0.2-0.9,0.7-1.7,1.4-2.3c0.7-0.6,1.5-1,2.4-1.1c2.9-0.3,7.2-0.5,13-0.5s10.1,0.2,13,0.5
	c1.8,0.2,3.3,1.6,3.8,3.4C119.9,83.9,120.1,86.7,120,89.4z M96.6,59.5H99l-2.8,9.3v6.3h-2.3v-6.3c-0.4-1.7-0.8-3.4-1.4-5
	s-1.1-3-1.5-4.3h2.5l1.7,6.2L96.6,59.5z M105.2,67.3v4.1c0.1,1-0.2,1.9-0.7,2.8c-0.6,0.8-1.5,1.2-2.5,1.2s-1.9-0.4-2.5-1.2
	c-0.5-0.8-0.7-1.8-0.7-2.8v-4.1c-0.1-1,0.2-1.9,0.7-2.7c0.6-0.8,1.5-1.2,2.5-1.2c1-0.1,1.9,0.4,2.5,1.2
	C105.1,65.4,105.3,66.4,105.2,67.3z M113.1,63.5v11.7H111V74c-0.6,0.8-1.4,1.3-2.4,1.4c-0.6,0-1.1-0.3-1.3-0.9
	c-0.2-0.6-0.2-1.2-0.2-1.8v-9.2h2.1v8.6c0,0.3,0,0.5,0,0.8s0.2,0.5,0.5,0.5l0,0c0.6-0.1,1.1-0.5,1.3-1v-8.9H113.1L113.1,63.5z"/>
<g>
	<path class="st5" d="M43.4,7.6v2.8h6.4V14h-6.4v5.7h-4.8v-16h11.7v3.8L43.4,7.6L43.4,7.6z"/>
	<path class="st5" d="M56.6,12.7v7h-4.7V7h2.6l0.8,1.5c0.8-1,1.9-1.9,4.4-1.8v4.1C56.9,10.6,56.6,11.1,56.6,12.7z"/>
	<path class="st5" d="M67,20c-5.7,0-6.7-3.5-6.7-6.6s1-6.6,6.7-6.6c6.6,0,6.2,5.2,6.2,7.6h-4.5h-4c0.1,1.8,0.8,2.6,2.1,2.6
		c1.3,0,1.8-0.6,1.9-1.5h4.6C73.1,18.1,71.3,20,67,20z M66.7,9.8c-1.3,0-1.9,0.5-2,2.2h4C68.5,10.4,68,9.8,66.7,9.8z"/>
	<path class="st5" d="M85,19.8l-0.8-1.4c-0.5,0.7-2,1.7-3.9,1.7c-4.5,0-5.7-3.4-5.7-6.6c0-3,0.9-6.6,4.7-6.6c1.6,0,2.7,0.4,3.6,1.1
		V2.1h4.7v17.7C87.6,19.8,85,19.8,85,19.8z M81.2,10.6c-1.8,0-1.8,1.2-1.8,2.8s0.1,2.9,1.8,2.9c1.8,0,1.8-1.2,1.8-2.9
		C83,11.9,83,10.6,81.2,10.6z"/>
	<path class="st5" d="M94.4,11.2h-2.3v-3c-1.9,0-2.9-0.7-2.9-2.2c0-1.8,1.2-2.4,2.9-2.4C93.7,3.6,95,4.2,95,6
		C95,7.1,94.4,11.2,94.4,11.2z"/>
	<path class="st5" d="M102.4,20c-4.3,0-6.4-1.4-6.4-4.9h4.6c0,1.3,0.5,2.1,1.8,2.1c1,0,1.5-0.4,1.5-1.1c0-2.4-7.7-0.8-7.7-5.4
		c0-2.1,1.5-3.9,6-3.9s5.9,1.3,5.9,4.6h-4.4c0-1.2-0.4-1.9-1.5-1.9s-1.5,0.4-1.5,1c0,2.3,7.7,0.6,7.7,5.6
		C108.5,17.9,106.7,20,102.4,20z"/>
	<path class="st5" d="M27.6,53.9h-6.3l-3-16.8l-3,16.8H9.1L3.6,28.2h6.1l2.7,17l3-17h6.2l3,17l2.6-17h6L27.6,53.9z"/>
	<path class="st5" d="M42.4,53.9h-7.5V28.2h7.8c6.3,0,9.2,4.9,9.2,12.7C51.9,48.6,48.7,53.9,42.4,53.9z M41.8,34.4h-1.1v13.4h0.9
		c2.8,0,4.5-1,4.5-6.9C46.2,35.1,44.6,34.4,41.8,34.4z"/>
	<path class="st5" d="M63.3,54.3c-7.8,0-9.2-6.8-9.2-13.2s1.4-13.2,9.2-13.2c6.7,0,9,5.2,9,11.2h-5.8c-0.3-3.7-1.2-5-3.1-5
		c-2.9,0-3.3,3.2-3.3,7s0.2,7.1,3.3,7.1c2,0,2.8-1.2,3.1-5.1h5.8C72.3,49.4,70,54.3,63.3,54.3z"/>
	<path class="st5" d="M91,34.4v19.5h-5.8V34.4h-4.6v-6.1h15v6.1H91z"/>
	<path class="st5" d="M102.3,54.3c-6.4,0-7.8-5.6-7.8-10.6S95.9,33,102.3,33c6.3,0,7.8,5.7,7.8,10.7
		C110.1,48.8,108.7,54.3,102.3,54.3z M102.4,39.1c-1.8,0-2.6,1.4-2.6,4.7s0.8,4.6,2.5,4.6c1.8,0,2.6-1.3,2.6-4.6
		C104.9,40.6,104.2,39.1,102.4,39.1z"/>
	<path class="st5" d="M124.2,53.9l-0.9-2.4c-1,1.7-2.6,2.8-4.8,2.8c-5.5,0-6.2-3.9-6.2-8.9V33.5h5.7v11.6c0,2.7,0.5,3.3,1.8,3.3
		c1.4,0,1.9-0.6,1.9-3.3V33.5h5.7V54L124.2,53.9L124.2,53.9z"/>
	<path class="st5" d="M135.9,42.6v11.3h-5.7V33.5h3.2l0.9,2.5c1-1.7,2.4-3.1,5.4-2.8v6.6C136.4,39.2,135.9,40,135.9,42.6z"/>
</g>
</svg>
