<?xml version="1.0" encoding="utf-8"?><svg width="267" height="172" viewBox="0 0 267 172" xmlns="http://www.w3.org/2000/svg" xmlns:xlink="http://www.w3.org/1999/xlink"><svg version="1" id="clear-view-escapes" width="142.4" height="59.5" viewBox="0 0 142.4 59.5" xmlns="http://www.w3.org/2000/svg"><style>.ast0{fill:#fcfafb}.ast1{fill:#fcfcfc}</style><title>clear-view-escapes</title><path class="ast0" d="M26.9 56.4h-6.3l-3-16.8-3 16.8H8.4L2.9 30.7H9l2.7 17 3-17h6.2l3 17 2.6-17h6l-5.6 25.7zM41.7 56.4h-7.5V30.7H42c6.3 0 9.2 4.9 9.2 12.7s-3.2 13-9.5 13zm-.6-19.5H40v13.4h.9c2.8 0 4.5-1 4.5-6.9s-1.5-6.5-4.3-6.5zM62.6 56.8c-7.8 0-9.2-6.8-9.2-13.2s1.4-13.2 9.2-13.2c6.7 0 9 5.2 9 11.2h-5.8c-.3-3.7-1.2-5-3.1-5-2.9 0-3.3 3.2-3.3 7s.2 7.1 3.3 7.1c2 0 2.8-1.2 3.1-5.1h5.8c0 6.3-2.3 11.2-9 11.2zM90.3 36.9v19.5h-5.8V36.9h-4.6v-6.1h15v6.1h-4.6zM101.6 56.8c-6.4 0-7.8-5.6-7.8-10.6s1.4-10.7 7.8-10.7 7.8 5.7 7.8 10.7-1.4 10.6-7.8 10.6zm.1-15.2c-1.8 0-2.6 1.4-2.6 4.7s.8 4.6 2.5 4.6 2.6-1.3 2.6-4.6-.7-4.7-2.5-4.7zM123.5 56.4l-.9-2.4c-1 1.8-2.8 2.8-4.8 2.8-5.5 0-6.2-3.9-6.2-8.9V36h5.7v11.6c0 2.7.5 3.3 1.8 3.3s1.9-.6 1.9-3.3V36h5.7v20.5l-3.2-.1zM135.2 45.1v11.3h-5.7V36h3.2l.9 2.5c1-2 3.2-3.2 5.4-2.8v6.6c-3.3-.6-3.8.2-3.8 2.8z"/><g><path class="ast1" d="M85.8 4.1c-17 .1-32.6-2-37.3-2.2-.9 6-1.5 10-1.9 12.1h7.1l-.2.6h-7L45 22.8c-.4 2.3-1.5 4.1-3.2 5.4s-3.5 2-5.5 2v-.6c1.4 0 2.4-.3 2.8-.9.4-.6.8-2.1 1.2-4.4l1.7-9.7h-1.7l.1-.6h1.7l2.1-11.9c-4.4.4-7.7 1.3-10.1 2.8s-3.5 3.5-3.5 5.9c0 2 1.1 3.4 3.2 4.1.9.3 1.6.4 2.1.4h.9v.7h-.2c-2.4 0-4.2-.6-5.4-1.8-.9-.8-1.3-1.9-1.3-3.4 0-3 1.6-5.4 4.8-7 3.2-1.7 7.7-2.5 13.5-2.5 3 0 28.5 2.7 37.7 2.2l-.1.6z"/><path class="ast1" d="M54.4 14.8c.6-.8 1.4-1.1 2.4-1.1s1.7.2 2.3.7c.5.5.8 1.2.8 2.1v.2c1-2 2.2-3 3.7-3 1.6 0 2.5.9 2.5 2.6 0 .7-.2 1.4-.7 2.2-.5.8-.9 1.5-1.4 2.3-.5.7-.7 1.3-.7 1.9h-.8c0-.8.5-1.9 1.4-3.2.9-1.3 1.4-2.4 1.4-3.1 0-.7-.1-1.2-.4-1.5s-.7-.4-1.3-.4-1.1.2-1.7.7c-.5.5-1 1.1-1.4 1.9-.6 1.1-1 2-1.1 2.7l-1.1 6.4h-3.8l2-11.9c-.6.1-1.2.4-1.6.9l-.5-.4zM73.6 13.6c2.7 0 4.1 1.1 4.1 3.2 0 1.3-.6 2.4-1.9 3-1.3.7-3.1 1-5.4 1.1 0 .8-.1 1.4-.1 1.8 0 1 .2 1.7.7 2.1.4.5 1 .7 1.6.7.7 0 1.3-.1 1.8-.4s1-.6 1.3-.9c.3-.4.6-.7.8-1.1.4-.7.6-1.1.6-1.3l.6.3c-.1.3-.3.8-.6 1.4-.3.6-.7 1-1.1 1.4s-.9.7-1.7 1c-.7.3-1.6.5-2.5.5-1.7 0-3-.4-3.9-1.2-.9-.8-1.3-1.9-1.3-3.4 0-2.5.6-4.5 1.9-6s3-2.2 5.1-2.2zm2.7 1.5c-.4-.5-1-.7-1.9-.7-.8 0-1.6.5-2.4 1.5s-1.3 2.4-1.5 4.3c4.3 0 6.4-1.1 6.4-3.4 0-.7-.2-1.2-.6-1.7zM90.5 26.3c-1.9 0-2.9-.8-3.1-2.4-.9 1.6-2.1 2.4-3.6 2.4s-2.6-.4-3.3-1.2c-.8-.8-1.1-1.9-1.1-3.4 0-2.5.6-4.5 1.8-5.9 1.2-1.4 2.7-2.2 4.6-2.2 1.1 0 1.9.3 2.5 1 .3.3.4.6.5.8L90.5 6c-.6.1-1.2.4-1.6.9l-.5-.4c.6-.8 1.4-1.1 2.4-1.1s1.7.2 2.3.7c.5.5.8 1.2.8 2.1 0 .2 0 .4-.1.8-1 5.9-2.1 11.4-3 16.7.6-.1 1.2-.4 1.6-.9l.5.4c-.7.7-1.5 1.1-2.4 1.1zm-7.2-1.2c.2.4.5.5 1 .5s.9-.1 1.3-.4.7-.7 1-1.1c.5-.8.9-1.5 1.1-2l.9-5c0-.7-.3-1.3-.7-1.9-.4-.6-1.1-.8-2.1-.8-.7 0-1.3 1-1.9 3s-.9 3.9-.9 5.8c0 .8.1 1.5.3 1.9zM98.5 5.9c-.4-.4-.7-1-.7-1.6s.2-1.2.7-1.6c.4-.5 1-.7 1.6-.7s1.2.2 1.6.7c.5.5.7 1 .7 1.6 0 1-.5 2.1-1.4 3.3-.9 1.1-2.2 2-3.9 2.5l-.3-.7c1-.3 1.8-.7 2.4-1.2.7-.5 1.1-.9 1.3-1.2l.3-.5c-.2.1-.4.1-.7.1-.6 0-1.2-.2-1.6-.7zM101.1 25.5c2.1 0 3.2-1.6 3.2-4.7 0-.8-.1-1.7-.3-2.7-.2-1-.4-1.7-.4-1.9-1.3 1.3-2.8 2.1-4.4 2.4v-.8c1.5-.3 3-1.2 4.3-2.6v-.1c0-.5.1-1 .2-1.5s.3-.9.4-1.1l.2-.4h.8c0 .9.1 1.8.4 2.6.3.8.6 1.4 1 1.9s.7 1.1 1 1.9.4 1.6.4 2.6c0 1.5-.6 2.8-1.7 3.8s-2.5 1.5-4.1 1.5-2.8-.4-3.6-1.1-1.2-1.6-1.2-2.6c0-.9.2-1.6.7-2s1-.6 1.7-.6c.6 0 1.2.2 1.6.6s.6.9.6 1.6c0 .6-.2 1.2-.6 1.6s-.9.7-1.6.7c-.3 0-.6 0-.9-.1.5.7 1.2 1 2.3 1z"/></g></svg><svg id="comment" data-name="Layer 1" width="64" height="64" viewBox="0 0 64 64" x="202.4" xmlns="http://www.w3.org/2000/svg"><defs><style>.bcls-1{fill:#2f5572}</style></defs><title>comment</title><path class="bcls-1" d="M.72.08A.67.67 0 0 0 0 .8v46.48a.72.72 0 0 0 .72.72H48l16 16V.72a.67.67 0 0 0-.72-.72H.8z"/></svg><svg version="1" id="facebook" width="21.2" height="42" viewBox="0 0 21.2 42" x="64" y="59.5" xmlns="http://www.w3.org/2000/svg"><style>.cst0{fill:#fff}</style><title>facebook</title><path class="cst0" d="M20.8 1.1v6.4h-3.7c-1-.1-2 .2-2.7.9-.5.8-.8 1.7-.7 2.6v4.6h6.9l-1 7.2h-5.9v18.4H6.4V22.8h-6v-7.2h6v-5.3c0-3 .8-5.3 2.4-7C10.5 1.6 12.9.7 15.3.8c1.9 0 3.7.1 5.5.3z"/></svg><svg version="1" id="fire" width="56" height="64" viewBox="0 0 56 64" y="107.5" xmlns="http://www.w3.org/2000/svg"><style>.dst0{fill:#d4953d}</style><title>Untitled-2</title><path class="dst0" d="M53.9 34.8s-1.6-2.8 0-5.1-.9-3.2-1.2-2.4-1.6 3-3 0-6.3-6.9-6.3-6.9c2.9-2.3 1-5.9.6-6.3s-.4 1.1-.9 1.5-3.2 0-4.2.9-2.1 0-2.1 0-.1-3.9-.3-6.9-3-.3-3-.3c-1.8-.3-5.9-3.4-7.2-4.5-1.3-1.1-1.5-1.8-.9-2.7s0-2.1-1.5-1.2-3.9 2.4-3.6 6-.9 3.3-3 5.4-3 6.3-3 6.3-.9.8-2.4 1.8c-.8.5-.9-.5-1.3-1.3-.3-.6-1.1-1.1-1.1-1.1-2 .6-1.7 5.2-2 5.6-10.4 10.8-6.9 22-3.1 31.9 4.5-4.6 17-8.3 29.1-8.1s18.3 5.1 18.3 5.1 1.5-2.9 3-7.2-.9-10.5-.9-10.5zM28.4 55.5c-11.9.4-19 4.5-21 8.2h41.5C47.4 60 42 55 28.4 55.5z"/></svg><svg id="globe" data-name="Layer 1" width="64" height="64" viewBox="0 0 64 64" x="56" y="107.5" xmlns="http://www.w3.org/2000/svg"><defs><style>.ecls-1{fill:#d4953f}</style></defs><title>globe</title><path class="ecls-1" d="M32 0a32 32 0 1 0 32 32A32 32 0 0 0 32 0zm0 8a23.75 23.75 0 0 1 7.52 1.52c-1.68 1.6-3.6 3-3.28 4.48s5.52 1 5.52 4c0 2.16-3.36 2.8-1 5.28 2.8 2.8-5.12 7.84-5.28 11.52-.24 6.64 6.72 7.76 12.24 7.76 3.36 0 4.24 1.6 4 3.52a24.07 24.07 0 0 1-19.76 10 22.94 22.94 0 0 1-8.48-1.76c1.76-3.52-2.24-10.48-6-12.72-1.84-1.84-5.76-1.12-8-2a23.49 23.49 0 0 1-1.52-6.72 1.42 1.42 0 0 1 1.28-.72c1.52 0 3.6 3 4.72 2.72 1.4-.32-5.96-10.48-2.52-12.48 1.6-1 4.8 3.12 3.76-1.28-1-4.08 2.88-2.24 5.28-3.28 2.08-.88 3.6-3.28 1-4.72a8.55 8.55 0 0 1-1.76-1.52A23.75 23.75 0 0 1 32 8.08V8zm18.48 8.72A26.46 26.46 0 0 1 54 22.48v.24a11.78 11.78 0 0 1-1.76 1.76C50 26.72 49.68 22.8 48.72 22c-1-1-4.8.16-5.28-1-.56-1.48 4-3.4 7.04-4.28z"/></svg><svg version="1" id="instagram" width="42" height="42" viewBox="0 0 42 42" x="142.4" y="64" xmlns="http://www.w3.org/2000/svg"><style>.fst0{fill:#fff}</style><title>instagram</title><path class="fst0" d="M36.6 34.9v-17h-3.5c.4 1.1.5 2.3.5 3.4 0 2.2-.6 4.3-1.7 6.1-1.1 1.8-2.7 3.4-4.6 4.4-1.9 1.1-4.1 1.6-6.3 1.6-3.3 0-6.5-1.2-8.8-3.6-2.4-2.2-3.7-5.4-3.7-8.6 0-1.2.1-2.3.5-3.4H5.3v17.1c0 .9.7 1.6 1.5 1.6H35c.4 0 .8-.2 1.1-.5.3-.2.5-.6.5-1.1zm-7.5-14c0-2.1-.8-4.1-2.4-5.6-1.5-1.5-3.6-2.3-5.8-2.3-2.1 0-4.2.8-5.7 2.3-1.5 1.4-2.4 3.4-2.4 5.6 0 2.1.8 4.1 2.4 5.6 1.5 1.5 3.6 2.3 5.7 2.3 2.2 0 4.2-.8 5.8-2.3 1.6-1.5 2.5-3.5 2.4-5.6zm7.5-9.4V7.1c0-.5-.2-.9-.5-1.3-.3-.3-.8-.5-1.3-.5h-4.6c-.5 0-.9.2-1.3.5-.3.3-.5.8-.5 1.3v4.3c0 1 .8 1.8 1.7 1.8h4.6c1.1.1 1.9-.7 1.9-1.7zM41.2 6v30c0 2.8-2.3 5.2-5.2 5.2H6c-1.4 0-2.7-.5-3.6-1.5-1-1-1.5-2.3-1.5-3.6V6c0-1.4.5-2.7 1.5-3.6C3.4 1.4 4.7.9 6 .9h30c1.4 0 2.7.5 3.6 1.5 1 .9 1.6 2.2 1.6 3.6z"/></svg><svg id="mail" data-name="Layer 1" width="64" height="48" viewBox="0 0 64 48" y="59.5" xmlns="http://www.w3.org/2000/svg"><defs><style>.gcls-1{fill:#2f5572}</style></defs><title>mail</title><path class="gcls-1" d="M0 0v8l32 16L64 8V0H0zm0 16v32h64V16L32 32z"/></svg><svg version="1" id="rain" width="64" height="64" viewBox="0 0 64 64" x="202.4" y="64" xmlns="http://www.w3.org/2000/svg"><style>.hst0{fill:#d1933c}</style><title>rain</title><path class="hst0" d="M51.6 21.4c-.4 0-8.3 1.2-8.3 1.2l1.3-3.7s.6-2.8-.3-3.8c-.8-1-1.9-1.7-4.3-1.8s-4-.1-4-.1l-.1-.5s.6-1.3 1.3-4.8c0 0 0-.3-.3-.5 0 0-2.9-1.6-3.8-2.6l.1-2.1s0-.5-.3-.6c-.4-.1-3.8-1.1-5.5-.2s-3 2.6-2.9 4.4.9 5.9.9 5.9-2.6.4-3.3.9c-.7.4-2.3 1.4-2.2 2.8 0 1.4.4 7.7.4 7.7s-2.8.1-3.5 0-.9-.1-.9.2c0 .2.6 19.1.6 19.1l.4 9.8-.2.3-3.7 5.9.2 4.5 37.9.2.2-4.5-3.7-6.9h-1.2L46 36l-5 .1 1-6.1 1.2-.1.1.5 1 .4 4.1.4.6-.1s.2-.2.2-.4.2-2.5.2-2.5l1.6-.1s.5.1.7-.5.4-4.7.4-5.2c.1-.7-.1-1.1-.5-1zm-17.7.8c.4-1.6.8-3.2 1.2-4.9.4-1.8 3.6-1.1 3.2.8-.4 1.6-.8 3.2-1.2 4.9-.5 1.9-3.7 1.1-3.2-.8zm-1.2-11.4c-.2.6-.3 1.1-.5 1.7-.2.8-1.2 1.2-2 1-.9-.2-1.4-1.1-1.2-1.8.2-.6.3-1.1.5-1.7.2-.8 1.2-1.2 2-1 .9.2 1.4 1.1 1.2 1.8zm-5.2-3.3c.4-1.2.9-2.3 1.2-3.5.5-1.8 3.7-1.1 3.2.8-.3 1.2-.8 2.4-1.2 3.5-.7 1.8-3.9 1-3.2-.8zm-3.3 16.6l.3-1.2c.3-1.1.6-2.3 1-3.4.5-1.7.9-3.3 1.4-5 .5-1.8 3.7-1.1 3.2.8-.5 1.7-1 3.5-1.5 5.2-.3 1.2-.6 2.3-1 3.5-.2.7-.3 1.6-.9 2.1-.6.6-1.7.5-2.3 0-.7-.6-.6-1.5 0-2.1-.2.2-.3.3-.3.4-.1.3-.3.3 0 0 0 0 .1-.2.1-.3zm-1.8 11.1c-.1-1.9 3.2-1.9 3.3 0 .2 3.6.5 7.2.7 10.7.1.9-.8 1.4-1.6 1.5s-1.7.2-2.5.3c-.9.1-1.6-.8-1.6-1.5 0-.9.8-1.4 1.6-1.5.3 0 .5-.1.8-.1-.3-3-.5-6.2-.7-9.4zm-1.6-5.7c1.1-.1 2.1-.2 3.2-.3.9-.1 1.6.7 1.6 1.5 0 .9-.8 1.4-1.6 1.5-1.1.1-2.1.2-3.2.3-.9.1-1.6-.7-1.6-1.5-.1-.9.7-1.4 1.6-1.5zm-1 24c2.3-.3 4.5-.6 6.8-.9.9-.1 1.8.2 2 1 .2.7-.3 1.7-1.2 1.8-2.3.3-4.5.6-6.8.9-.9.1-1.8-.2-2-1-.2-.7.3-1.7 1.2-1.8zm27.8 5.2c2.1 0 2.1 2.9 0 2.9H16.8c-2.1 0-2.1-2.9 0-2.9H47.6zM34.3 32.6c-.9.1-1.8-.2-2-1-.2-.7.3-1.7 1.2-1.8 1.5-.2 3-.5 4.5-.7.9-.1 1.8.2 2 1 .2.7-.3 1.7-1.2 1.8-1.5.3-3 .5-4.5.7zm1.4 25c-.6.6-1.7.5-2.3 0-.7-.6-1.3-1.1-2-1.7s-.6-1.5 0-2.1 1.7-.5 2.3 0c.7.6 1.3 1.1 2 1.7.6.6.6 1.5 0 2.1zm-2.4-15.9c-.3.8-.6 1.7-1 2.5-.3.8-1.1 1.2-2 1-.8-.2-1.4-1.1-1.2-1.8.3-.8.6-1.7 1-2.5.3-.8 1.1-1.2 2-1 .9.2 1.5 1.1 1.2 1.8zM44.8 53c.9.1 1.6.6 1.6 1.5 0 .7-.8 1.5-1.6 1.5-2.3-.2-4.6-.4-7-.6-.9-.1-1.6-.6-1.6-1.5 0-.7.8-1.5 1.6-1.5 2.3.3 4.6.5 7 .6zm2.6-23.5l-1.8.3c-.9.1-1.7-.2-2-1-.3-.7.3-1.7 1.2-1.8l1.8-.3c.9-.1 1.7.2 2 1 .2.7-.4 1.6-1.2 1.8zm2.7-4c-3.4.6-6.9 1.2-10.3 1.8-3.4.6-6.9 1.2-10.4 1.5-.9.1-1.6-.7-1.6-1.5 0-.9.8-1.4 1.6-1.5 3.3-.4 6.5-.9 9.8-1.5s6.7-1.1 10-1.7c.9-.2 1.8.2 2 1 .3.9-.2 1.8-1.1 1.9z"/></svg><svg version="1" id="star" width="64" height="64" viewBox="0 0 64 64" x="120" y="107.5" xmlns="http://www.w3.org/2000/svg"><style>.ist0{fill:#d4953f}</style><title>star</title><circle class="ist0" cx="32.8" cy="10.9" r="6.2"/><ellipse transform="rotate(-74.199 10.122 27.84)" class="ist0" cx="10.1" cy="27.8" rx="6.2" ry="6.2"/><ellipse transform="rotate(-58.399 20.242 54.405)" class="ist0" cx="20.2" cy="54.4" rx="6.2" ry="6.2"/><ellipse transform="rotate(-42.6 48.408 51.79)" class="ist0" cx="48.4" cy="51.8" rx="6.2" ry="6.2"/><ellipse transform="rotate(-26.798 53.604 24.008)" class="ist0" cx="53.6" cy="24" rx="6.2" ry="6.2"/><ellipse class="ist0" cx="31.1" cy="32.1" rx="8.6" ry="8.8"/></svg><svg id="twitter" data-name="Layer 1" width="51.78" height="42.06" viewBox="0 0 51.78 42.06" x="202.4" y="128" xmlns="http://www.w3.org/2000/svg"><defs><style>.jcls-1{fill:#fff}</style></defs><title>twitter</title><path class="jcls-1" d="M51.78 5a22.23 22.23 0 0 1-5.32 5.52v1.38a30.15 30.15 0 0 1-1.25 8.53 30.81 30.81 0 0 1-3.76 8.13 32.1 32.1 0 0 1-6.06 6.92 27 27 0 0 1-8.48 4.8 31 31 0 0 1-10.62 1.8A29.47 29.47 0 0 1 0 37.29a22.71 22.71 0 0 0 2.56.13 20.78 20.78 0 0 0 13.17-4.53 10.63 10.63 0 0 1-9.92-7.36 13.45 13.45 0 0 0 2 .16 11 11 0 0 0 2.79-.36 10.44 10.44 0 0 1-6.09-3.67 10.25 10.25 0 0 1-2.41-6.75v-.13a10.52 10.52 0 0 0 4.8 1.34 10.6 10.6 0 0 1-3.45-3.78 10.34 10.34 0 0 1-1.28-5.07 10.4 10.4 0 0 1 1.45-5.33 30.08 30.08 0 0 0 9.71 7.83A29.57 29.57 0 0 0 25.53 13a11.79 11.79 0 0 1-.26-2.43 10.23 10.23 0 0 1 3-7.48 10.64 10.64 0 0 1 15 0l.21.22A20.81 20.81 0 0 0 50.33.8a10.3 10.3 0 0 1-4.67 5.85A21.14 21.14 0 0 0 51.78 5z"/></svg><svg version="1" id="wifi" width="60" height="64" viewBox="0 0 60 64" x="142.4" xmlns="http://www.w3.org/2000/svg"><style>.kst0{fill:#d4953f}</style><title>wifi</title><path class="kst0" d="M43.9 30.1c0-5.5-7.2-11.2-13.4-11.2s-12.3 5.3-14.2 11.9c3.5-2.1 7.5-3.3 14.2-3.4 6.9 0 13.4 2.7 13.4 2.7zM13.6 41.3c2-.9 7.7-3.3 17.7-3.2s16.2 2.8 16.2 2.8v-1.6c1.3-2.1.7-2.7.1-3.7-.7-1.1-4.5-4.8-16.8-5.1-8-.2-13.2 2.5-14.7 3.2s-4.8 3-2.5 6v1.6zm20-24v-3.6S32.5 12 30.5 12c-2 .1-3.4.8-3.5 1.9l-.1 3.4c.9-.8 4-2.2 6.7 0zm-5.2-7.4c1.2-.4 3-.5 4-.1l-1-2-.5-1.8.5-1.9s-.6-2.9-1.1-2.8c-.5.1-.9.9-.8 1.6 0 .7-.2.8-.2.8l.2 1.1.3 1.3s.1 1.1-.3 1.8c-.6.9-.9 1.7-1.1 2zm3.4 33.4c15.5-.4 19.7 5.6 19.7 5.6 1.2-.8.3-4.1-1.1-4.7-5.6-2.3-8.1-3.6-18.6-3.6s-17.1 2.3-19.6 3.6-2.9 3.2-1.9 5.3c1.8-3 6-5.7 21.5-6.2zm-.4 3.5c-14.8.2-16.6 3.3-20.8 6v4.6h9.1l.9-1.6 19.1-6 11.4 3.9v-1.6c-6-4.3-7.5-5.6-19.7-5.3zm8.5 6.9l-18.7 5.2-.8 1.1H.4v3.2l59.1-.1v-3.3l-19.6-6.1z"/></svg><svg version="1" id="youtube" width="34.8" height="42" viewBox="0 0 34.8 42" x="85.2" y="59.5" xmlns="http://www.w3.org/2000/svg"><style>.lst0{fill:#fff}</style><title>youtube</title><path class="lst0" d="M21.9 28.8v4.8c0 1-.3 1.5-.9 1.5-.4 0-.8-.2-1-.5v-6.8c.3-.3.6-.5 1-.5.7 0 .9.5.9 1.5zm7.6 0v1h-2v-1c0-1 .3-1.5 1-1.5s1 .5 1 1.5zM7.8 23.9h2.4v-2.1h-7v2.1h2.4v12.8h2.2V23.9zm6.5 12.9h2V25.6h-2v8.5c-.2.5-.7.9-1.3 1-.3 0-.5-.2-.5-.5v-9h-2.1v8.8c0 .6 0 1.1.2 1.6.2.6.7.9 1.3.8.9-.1 1.8-.6 2.3-1.4.1.2.1 1.4.1 1.4zm9.6-3.4V29c0-.8 0-1.5-.2-2.2-.2-.8-.8-1.3-1.6-1.3-.9.1-1.6.5-2.1 1.3v-4.9h-2v14.9h2v-1.1c.5.7 1.2 1.2 2.1 1.3.8 0 1.4-.5 1.6-1.3.2-.8.3-1.5.2-2.3zm7.7-.2v-.3h-2.1v1.4c0 .5-.4.8-.9.8-.7 0-1-.5-1-1.5v-2h4v-2.3c.1-.9-.2-1.8-.6-2.6-1.1-1.3-3-1.5-4.3-.5-.2.1-.3.3-.5.5-.5.8-.7 1.7-.6 2.6v3.9c-.1.9.1 1.8.6 2.6.6.8 1.5 1.2 2.4 1.2 1.4.1 2.7-1 2.9-2.4 0-.5 0-1 .1-1.4zM17.9 12.6V7.9c0-1-.3-1.5-1-1.5s-1 .5-1 1.5v4.7c0 1.1.3 1.6 1 1.6s1-.5 1-1.6zm16.2 16.9c.1 2.6-.1 5.3-.6 7.9-.2.9-.7 1.6-1.3 2.2-.6.6-1.4 1-2.3 1-4.2.4-8.3.5-12.5.5-4.2.1-8.3-.1-12.5-.5-.9-.1-1.7-.5-2.3-1-.7-.6-1.1-1.4-1.3-2.2-.5-2.6-.7-5.2-.6-7.9-.1-2.6.1-5.3.6-7.9.2-.9.7-1.6 1.3-2.2.6-.6 1.5-1 2.3-1.1 2.7-.3 6.9-.5 12.5-.5s9.7.2 12.5.5c1.8.2 3.2 1.5 3.6 3.3.5 2.7.6 5.3.6 7.9zM11.6.8h2.3l-2.7 9v6.1H8.9V9.8C8.6 8.2 8.1 6.6 7.5 5 7 3.5 6.5 2.1 6.1.8h2.4l1.6 5.9L11.6.8zm8.3 7.5v3.9c.1.9-.1 1.9-.6 2.7-.6.8-1.5 1.2-2.4 1.1-.9 0-1.8-.4-2.4-1.1-.5-.8-.7-1.7-.6-2.7V8.3c-.1-.9.2-1.8.6-2.6.5-.8 1.4-1.2 2.4-1.1.9-.1 1.8.4 2.4 1.1.4.8.7 1.7.6 2.6zm7.6-3.6v11.2h-2v-1.2c-.5.8-1.4 1.3-2.3 1.4-.6 0-1.1-.3-1.3-.8-.1-.6-.2-1.1-.2-1.7V4.7h2V13.8c0 .3.2.5.4.5.5-.1 1-.5 1.3-1V4.7h2.1z"/></svg></svg>