<?xml version="1.0" encoding="utf-8"?>
<!-- Generator: Adobe Illustrator 21.1.0, SVG Export Plug-In . SVG Version: 6.00 Build 0)  -->
<svg version="1.1" id="youtube" xmlns="http://www.w3.org/2000/svg" xmlns:xlink="http://www.w3.org/1999/xlink" x="0px" y="0px"
	 width="266.4px" height="171.5px" viewBox="0 0 266.4 171.5" style="enable-background:new 0 0 266.4 171.5;" xml:space="preserve"
	>
<style type="text/css">
	.st0{fill:#2F5572;}
	.st1{fill:#FFFFFF;}
	.st2{fill:#D4953F;}
	.st3{fill:#FCFAFB;}
	.st4{fill:#FCFCFC;}
	.st5{fill:#D4953D;}
	.st6{fill:#D1933C;}
</style>
<title>sprite-0f9283b3</title>
<path class="st0" d="M203.7,0.7c-0.4,0-0.7,0.2-0.7,0.6v0.1V47c0,0.4,0.3,0.7,0.7,0.7l0,0H250l15.7,15.7v-62c0-0.4-0.2-0.7-0.6-0.7
	l0,0L203.7,0.7L203.7,0.7z"/>
<path class="st1" d="M85,60.3v6.6h-3.8c-1-0.1-2,0.2-2.8,0.9c-0.5,0.8-0.8,1.7-0.7,2.7V75h7l-1,7.3h-6.1V101h-7.4V82.3h-6.1V75h6.1
	v-5.4c0-3.1,0.8-5.4,2.5-7.1c1.8-1.7,4.2-2.7,6.7-2.5C81.4,59.9,83.2,60,85,60.3z"/>
<path class="st2" d="M88,108.2c-17.3,0-31.4,14-31.4,31.4S70.6,171,88,171s31.4-14,31.4-31.4S105.3,108.2,88,108.2z M88,116
	c2.5,0.1,5,0.6,7.4,1.4c-1.6,1.6-3.5,2.9-3.2,4.4s5.4,1,5.4,3.9c0,2.1-3.3,2.7-1,5.2c2.7,2.7-5,7.7-5.2,11.3
	c-0.2,6.5,6.6,7.6,12,7.6c3.3,0,4.2,1.6,3.9,3.4c-4.5,6.2-11.7,9.9-19.4,9.8c-2.9,0-5.7-0.6-8.3-1.7c1.7-3.4-2.2-10.3-5.9-12.5
	c-1.8-1.8-5.6-1.1-7.8-2c-0.8-2.1-1.3-4.3-1.5-6.5c0.3-0.4,0.7-0.7,1.3-0.7c1.5,0,3.5,2.9,4.6,2.7c1.4-0.3-5.9-10.3-2.5-12.2
	c1.6-1,4.7,3.1,3.7-1.3c-1-4,2.8-2.2,5.2-3.2c2-0.9,3.5-3.2,1-4.6c-0.6-0.4-1.2-0.9-1.7-1.5C79.6,117.3,83.8,116.1,88,116L88,116z
	 M106.1,124.6c1.4,1.7,2.5,3.6,3.4,5.6v0.2c-0.5,0.6-1.1,1.2-1.7,1.7c-2.2,2.2-2.5-1.6-3.4-2.4c-1-1-4.7,0.2-5.2-1
	C98.7,127.3,103.1,125.4,106.1,124.6z"/>
<path class="st1" d="M179.3,99.2V81.8h-3.6c0.4,1.1,0.6,2.3,0.6,3.5c0,2.2-0.6,4.4-1.7,6.2c-1.1,1.9-2.8,3.4-4.7,4.5
	c-2,1.1-4.2,1.7-6.4,1.7c-3.4,0-6.6-1.3-9-3.6c-2.4-2.3-3.8-5.5-3.8-8.8c0-1.2,0.1-2.4,0.5-3.5h-3.8v17.4c0,0.9,0.7,1.6,1.6,1.6l0,0
	h28.8c0.4,0,0.8-0.2,1.1-0.5C179.2,100.1,179.3,99.6,179.3,99.2z M171.7,84.9c0-2.1-0.9-4.2-2.4-5.7c-3.3-3.1-8.4-3.1-11.7,0
	c-3.1,3-3.2,8-0.3,11.1c0.1,0.1,0.2,0.2,0.3,0.3c3.3,3.1,8.4,3.1,11.7,0C170.9,89.1,171.7,87.1,171.7,84.9L171.7,84.9z M179.3,75.3
	v-4.4c0-0.5-0.2-0.9-0.5-1.3s-0.8-0.6-1.3-0.5h-4.7c-0.5,0-0.9,0.2-1.3,0.5c-0.3,0.3-0.5,0.8-0.5,1.3v4.4c0,1,0.8,1.9,1.8,1.9l0,0
	h4.7C178.5,77.1,179.4,76.3,179.3,75.3L179.3,75.3L179.3,75.3L179.3,75.3z M184,69.7v30.6c0,2.9-2.4,5.3-5.3,5.3h-30.6
	c-2.9,0-5.3-2.4-5.3-5.3V69.7c0-2.9,2.4-5.3,5.3-5.3h30.6C181.6,64.4,183.9,66.8,184,69.7L184,69.7z"/>
<path class="st0" d="M0.6,60v7.8L32,83.5l31.4-15.7V60H0.6z M0.6,75.7V107h62.7V75.7L32,91.4L0.6,75.7z"/>
<path class="st1" d="M253.7,133.3c-1.4,2.1-3.2,3.9-5.2,5.4v1.4c0,2.8-0.4,5.6-1.2,8.4c-0.8,2.8-2.1,5.5-3.7,8
	c-1.6,2.5-3.6,4.8-5.9,6.8c-2.5,2.1-5.3,3.7-8.3,4.7c-3.3,1.2-6.9,1.8-10.4,1.8c-5.7,0-11.2-1.6-16-4.7c0.8,0.1,1.7,0.1,2.5,0.1
	c4.7,0,9.2-1.5,12.9-4.4c-4.4-0.1-8.4-3-9.7-7.2c0.6,0.1,1.3,0.2,2,0.2c0.9,0,1.8-0.1,2.7-0.4c-2.3-0.5-4.5-1.7-6-3.6
	c-1.6-1.8-2.4-4.2-2.4-6.6v-0.1c1.4,0.8,3.1,1.3,4.7,1.3c-1.4-0.9-2.6-2.2-3.4-3.7c-1.7-3.2-1.7-7.1,0.2-10.2
	c2.6,3.2,5.8,5.8,9.5,7.7s7.8,3,12,3.2c-0.2-0.8-0.3-1.6-0.3-2.4c-0.1-2.7,1-5.4,2.9-7.3c4.1-4,10.6-4,14.7,0l0.2,0.2
	c2.4-0.4,4.6-1.3,6.7-2.5c-0.8,2.4-2.4,4.5-4.6,5.7C249.7,134.7,251.8,134.2,253.7,133.3z"/>
<path class="st1" d="M107.3,88.5v4.9c0,1-0.3,1.5-0.9,1.5c-0.4,0-0.8-0.2-1-0.5v-7c0.3-0.3,0.6-0.5,1-0.5
	C107,86.9,107.3,87.5,107.3,88.5z M115,88.5v1.1h-2v-1c0-1,0.3-1.6,1-1.6S115,87.5,115,88.5L115,88.5z M92.8,83.5h2.5v-2.1h-7.2v2.2
	h2.4v13.1h2.3L92.8,83.5z M99.5,96.6h2V85.3h-2V94c-0.3,0.5-0.7,0.9-1.3,1c-0.3,0-0.5-0.2-0.5-0.5l0,0l0,0c0-0.3,0-0.5,0-0.8v-8.4
	h-2.1v9c0,0.6,0,1.1,0.2,1.7s0.7,0.9,1.3,0.9c0.9-0.1,1.8-0.6,2.3-1.4L99.5,96.6L99.5,96.6z M109.3,93.2v-4.5c0-0.8,0-1.5-0.2-2.3
	s-0.8-1.3-1.6-1.3c-0.9,0.1-1.7,0.5-2.1,1.3v-5h-2v15.2h2v-1.1c0.5,0.7,1.3,1.2,2.1,1.3c0.8,0,1.5-0.5,1.6-1.3
	C109.3,94.7,109.3,94,109.3,93.2L109.3,93.2z M117.1,93v-0.3H115c0,0.5,0,0.9,0,1.4s-0.4,0.9-0.9,0.8c-0.7,0-1.1-0.5-1.1-1.6v-2h4.1
	v-2.4c0.1-0.9-0.2-1.9-0.6-2.7c-1.1-1.4-3.1-1.6-4.4-0.5c-0.2,0.1-0.3,0.3-0.5,0.5c-0.5,0.8-0.7,1.7-0.6,2.7v3.9
	c-0.1,0.9,0.1,1.9,0.6,2.7c0.6,0.8,1.5,1.2,2.4,1.2c1.5,0.1,2.7-1,2.9-2.5C117,93.8,117,93.4,117.1,93L117.1,93z M103.1,72v-4.8
	c0-1.1-0.3-1.6-1-1.6s-1,0.5-1,1.6V72c0,1.1,0.3,1.6,1,1.6C102.8,73.6,103.1,73.1,103.1,72z M119.7,89.3c0.1,2.7-0.1,5.4-0.6,8
	c-0.2,0.9-0.7,1.7-1.4,2.3c-0.6,0.6-1.5,1-2.3,1.1c-4.2,0.4-8.5,0.5-12.7,0.5c-4.3,0.1-8.5-0.1-12.7-0.5c-0.9-0.1-1.7-0.5-2.3-1.1
	c-0.7-0.6-1.2-1.4-1.3-2.3c-0.5-2.7-0.7-5.3-0.6-8c-0.1-2.7,0.1-5.4,0.6-8c0.2-0.9,0.7-1.7,1.4-2.3c0.7-0.6,1.5-1,2.4-1.1
	c2.8-0.3,7-0.5,12.7-0.5s9.9,0.2,12.7,0.5c1.8,0.2,3.3,1.6,3.7,3.4C119.5,83.9,119.7,86.6,119.7,89.3z M96.7,60h2.4l-2.8,9.2v6.2H94
	v-6.2c-0.4-1.7-0.8-3.3-1.4-4.9c-0.6-1.5-1.1-3-1.5-4.3h2.4l1.6,6L96.7,60z M105.2,67.6v4c0.1,0.9-0.2,1.9-0.6,2.7
	c-1.1,1.3-3,1.6-4.4,0.5c-0.2-0.1-0.3-0.3-0.5-0.5c-0.5-0.8-0.7-1.8-0.6-2.7v-4c-0.1-0.9,0.2-1.9,0.6-2.7c1.1-1.3,3-1.6,4.4-0.5
	c0.2,0.1,0.3,0.3,0.5,0.5C105,65.7,105.3,66.7,105.2,67.6z M112.9,63.9v11.5h-2.1v-1.2c-0.5,0.8-1.4,1.3-2.4,1.4
	c-0.6,0-1.1-0.3-1.3-0.9c-0.1-0.6-0.2-1.1-0.2-1.7v-9.1h2.1v8.4c0,0.3,0,0.5,0,0.8s0.2,0.5,0.4,0.5l0,0l0,0c0.6-0.1,1-0.5,1.3-1
	v-8.8L112.9,63.9L112.9,63.9z"/>
<g>
	<path class="st3" d="M26.6,58.1h-6.3l-3-16.8l-3,16.8H8.1L2.6,32.4h6.1l2.7,17l3-17h6.2l3,17l2.6-17h6L26.6,58.1z"/>
	<path class="st3" d="M41.4,58.1h-7.5V32.4h7.8c6.3,0,9.2,4.9,9.2,12.7S47.7,58.1,41.4,58.1z M40.8,38.6h-1.1V52h0.9
		c2.8,0,4.5-1,4.5-6.9S43.6,38.6,40.8,38.6z"/>
	<path class="st3" d="M62.3,58.5c-7.8,0-9.2-6.8-9.2-13.2s1.4-13.2,9.2-13.2c6.7,0,9,5.2,9,11.2h-5.8c-0.3-3.7-1.2-5-3.1-5
		c-2.9,0-3.3,3.2-3.3,7s0.2,7.1,3.3,7.1c2,0,2.8-1.2,3.1-5.1h5.8C71.3,53.6,69,58.5,62.3,58.5z"/>
	<path class="st3" d="M90,38.6v19.5h-5.8V38.6h-4.6v-6.1h15v6.1H90z"/>
	<path class="st3" d="M101.3,58.5c-6.4,0-7.8-5.6-7.8-10.6s1.4-10.7,7.8-10.7s7.8,5.7,7.8,10.7S107.7,58.5,101.3,58.5z M101.4,43.3
		c-1.8,0-2.6,1.4-2.6,4.7s0.8,4.6,2.5,4.6s2.6-1.3,2.6-4.6S103.2,43.3,101.4,43.3z"/>
	<path class="st3" d="M123.2,58.1l-0.9-2.4c-1,1.8-2.8,2.8-4.8,2.8c-5.5,0-6.2-3.9-6.2-8.9V37.7h5.7v11.6c0,2.7,0.5,3.3,1.8,3.3
		s1.9-0.6,1.9-3.3V37.7h5.7v20.5L123.2,58.1L123.2,58.1z"/>
	<path class="st3" d="M134.9,46.8v11.3h-5.7V37.7h3.2l0.9,2.5c1-2,3.2-3.2,5.4-2.8V44C135.4,43.4,134.9,44.2,134.9,46.8z"/>
</g>
<g>
	<path class="st4" d="M85.5,5.8c-17,0.1-32.6-2-37.3-2.2c-0.9,6-1.5,10-1.9,12.1h7.1l-0.2,0.6h-7l-1.5,8.2c-0.4,2.3-1.5,4.1-3.2,5.4
		s-3.5,2-5.5,2v-0.6c1.4,0,2.4-0.3,2.8-0.9c0.4-0.6,0.8-2.1,1.2-4.4l1.7-9.7H40l0.1-0.6h1.7l2.1-11.9c-4.4,0.4-7.7,1.3-10.1,2.8
		s-3.5,3.5-3.5,5.9c0,2,1.1,3.4,3.2,4.1c0.9,0.3,1.6,0.4,2.1,0.4c0.6,0,0.9,0,0.9,0v0.7h-0.2c-2.4,0-4.2-0.6-5.4-1.8
		c-0.9-0.8-1.3-1.9-1.3-3.4c0-3,1.6-5.4,4.8-7C37.6,3.8,42.1,3,47.9,3c3,0,28.5,2.7,37.7,2.2L85.5,5.8z"/>
	<path class="st4" d="M54.1,16.5c0.6-0.8,1.4-1.1,2.4-1.1s1.7,0.2,2.3,0.7c0.5,0.5,0.8,1.2,0.8,2.1v0.2c1-2,2.2-3,3.7-3
		c1.6,0,2.5,0.9,2.5,2.6c0,0.7-0.2,1.4-0.7,2.2c-0.5,0.8-0.9,1.5-1.4,2.3c-0.5,0.7-0.7,1.3-0.7,1.9h-0.8c0-0.8,0.5-1.9,1.4-3.2
		c0.9-1.3,1.4-2.4,1.4-3.1s-0.1-1.2-0.4-1.5s-0.7-0.4-1.3-0.4s-1.1,0.2-1.7,0.7c-0.5,0.5-1,1.1-1.4,1.9c-0.6,1.1-1,2-1.1,2.7l0,0
		L58,27.9h-3.8l2-11.9c-0.6,0.1-1.2,0.4-1.6,0.9L54.1,16.5z"/>
	<path class="st4" d="M73.3,15.3c2.7,0,4.1,1.1,4.1,3.2c0,1.3-0.6,2.4-1.9,3c-1.3,0.7-3.1,1-5.4,1.1c0,0.8-0.1,1.4-0.1,1.8
		c0,1,0.2,1.7,0.7,2.1c0.4,0.5,1,0.7,1.6,0.7c0.7,0,1.3-0.1,1.8-0.4s1-0.6,1.3-0.9c0.3-0.4,0.6-0.7,0.8-1.1c0.4-0.7,0.6-1.1,0.6-1.3
		l0.6,0.3c-0.1,0.3-0.3,0.8-0.6,1.4c-0.3,0.6-0.7,1-1.1,1.4s-0.9,0.7-1.7,1c-0.7,0.3-1.6,0.5-2.5,0.5c-1.7,0-3-0.4-3.9-1.2
		c-0.9-0.8-1.3-1.9-1.3-3.4c0-2.5,0.6-4.5,1.9-6S71.2,15.3,73.3,15.3z M76,16.8c-0.4-0.5-1-0.7-1.9-0.7c-0.8,0-1.6,0.5-2.4,1.5
		s-1.3,2.4-1.5,4.3c4.3,0,6.4-1.1,6.4-3.4C76.6,17.8,76.4,17.3,76,16.8z"/>
	<path class="st4" d="M90.2,28c-1.9,0-2.9-0.8-3.1-2.4C86.2,27.2,85,28,83.5,28s-2.6-0.4-3.3-1.2c-0.8-0.8-1.1-1.9-1.1-3.4
		c0-2.5,0.6-4.5,1.8-5.9c1.2-1.4,2.7-2.2,4.6-2.2c1.1,0,1.9,0.3,2.5,1c0.3,0.3,0.4,0.6,0.5,0.8l1.7-9.4c-0.6,0.1-1.2,0.4-1.6,0.9
		l-0.5-0.4c0.6-0.8,1.4-1.1,2.4-1.1s1.7,0.2,2.3,0.7c0.5,0.5,0.8,1.2,0.8,2.1c0,0.2,0,0.4-0.1,0.8c-1,5.9-2.1,11.4-3,16.7
		c0.6-0.1,1.2-0.4,1.6-0.9l0.5,0.4C91.9,27.6,91.1,28,90.2,28z M83,26.8c0.2,0.4,0.5,0.5,1,0.5s0.9-0.1,1.3-0.4s0.7-0.7,1-1.1
		c0.5-0.8,0.9-1.5,1.1-2l0.9-5c0-0.7-0.3-1.3-0.7-1.9c-0.4-0.6-1.1-0.8-2.1-0.8c-0.7,0-1.3,1-1.9,3s-0.9,3.9-0.9,5.8
		C82.7,25.7,82.8,26.4,83,26.8z"/>
	<path class="st4" d="M98.2,7.6c-0.4-0.4-0.7-1-0.7-1.6s0.2-1.2,0.7-1.6c0.4-0.5,1-0.7,1.6-0.7s1.2,0.2,1.6,0.7
		c0.5,0.5,0.7,1,0.7,1.6c0,1-0.5,2.1-1.4,3.3c-0.9,1.1-2.2,2-3.9,2.5l-0.3-0.7c1-0.3,1.8-0.7,2.4-1.2c0.7-0.5,1.1-0.9,1.3-1.2
		l0.3-0.5c-0.2,0.1-0.4,0.1-0.7,0.1C99.2,8.3,98.6,8.1,98.2,7.6z"/>
	<path class="st4" d="M100.8,27.2c2.1,0,3.2-1.6,3.2-4.7c0-0.8-0.1-1.7-0.3-2.7c-0.2-1-0.4-1.7-0.4-1.9c-1.3,1.3-2.8,2.1-4.4,2.4
		v-0.8c1.5-0.3,3-1.2,4.3-2.6v-0.1c0-0.5,0.1-1,0.2-1.5s0.3-0.9,0.4-1.1l0.2-0.4h0.8c0,0.9,0.1,1.8,0.4,2.6c0.3,0.8,0.6,1.4,1,1.9
		s0.7,1.1,1,1.9s0.4,1.6,0.4,2.6c0,1.5-0.6,2.8-1.7,3.8s-2.5,1.5-4.1,1.5S99,27.7,98.2,27S97,25.4,97,24.4c0-0.9,0.2-1.6,0.7-2
		s1-0.6,1.7-0.6c0.6,0,1.2,0.2,1.6,0.6s0.6,0.9,0.6,1.6c0,0.6-0.2,1.2-0.6,1.6s-0.9,0.7-1.6,0.7c-0.3,0-0.6,0-0.9-0.1
		C99,26.9,99.7,27.2,100.8,27.2z"/>
</g>
<g>
	<g>
		<path class="st2" d="M184.7,29.9c0-5.5-7.2-11.2-13.4-11.2S159,24,157.1,30.6c3.5-2.1,7.5-3.3,14.2-3.4
			C178.2,27.1,184.7,29.9,184.7,29.9z M154.4,41.1c2-0.9,7.7-3.3,17.7-3.2s16.2,2.8,16.2,2.8v-1.6c1.3-2.1,0.7-2.7,0.1-3.7
			c-0.7-1.1-4.5-4.8-16.8-5.1c-8-0.2-13.2,2.5-14.7,3.2s-4.8,3-2.5,6V41.1z M174.4,17v-3.6c0,0-1.1-1.7-3.1-1.7
			c-2,0.1-3.4,0.8-3.5,1.9l-0.1,3.4C168.5,16.3,171.7,14.9,174.4,17z M169.1,9.7c1.2-0.4,3-0.5,4-0.1l-1-2l-0.5-1.8l0.5-1.9
			c0,0-0.6-2.9-1.1-2.8c-0.5,0.1-0.9,0.9-0.8,1.6c0,0.7-0.2,0.8-0.2,0.8l0.2,1.1l0.3,1.3c0,0,0.1,1.1-0.3,1.8
			C169.7,8.5,169.3,9.3,169.1,9.7z M172.5,43.1c15.5-0.4,19.7,5.6,19.7,5.6c1.2-0.8,0.3-4.1-1.1-4.7c-5.6-2.3-8.1-3.6-18.6-3.6
			s-17.1,2.3-19.6,3.6s-2.9,3.2-1.9,5.3C152.8,46.3,157,43.6,172.5,43.1z M172.1,46.5c-14.8,0.2-16.6,3.3-20.8,6v4.6h9.1l0.9-1.6
			l19.1-6l11.4,3.9v-1.6C185.9,47.5,184.3,46.3,172.1,46.5z M180.7,53.4L162,58.6l-0.8,1.2h-20V63l59.1-0.1v-3.3L180.7,53.4z"/>
	</g>
</g>
<g>
	<g>
		<path class="st5" d="M53.7,142.6c0,0-1.6-2.8,0-5.1s-0.9-3.2-1.2-2.4s-1.6,3-3,0s-6.3-6.9-6.3-6.9c2.9-2.3,1-5.9,0.6-6.3
			s-0.4,1.1-0.9,1.5s-3.2,0-4.2,0.9s-2.1,0-2.1,0s-0.1-3.9-0.3-6.9s-3-0.3-3-0.3c-1.8-0.3-5.9-3.4-7.2-4.5c-1.3-1.1-1.5-1.8-0.9-2.7
			s0-2.1-1.5-1.2s-3.9,2.4-3.6,6s-0.9,3.3-3,5.4s-3,6.3-3,6.3s-0.9,0.8-2.4,1.8c-0.8,0.5-0.9-0.5-1.3-1.3c-0.3-0.6-1.1-1.1-1.1-1.1
			c-2,0.6-1.7,5.2-2,5.6c-10.4,10.8-6.9,22-3.1,31.9c4.5-4.6,17-8.3,29.1-8.1s18.3,5.1,18.3,5.1s1.5-2.9,3-7.2
			S53.7,142.6,53.7,142.6z M28.2,163.3c-11.9,0.4-19,4.5-21,8.2h41.5C47.2,167.8,41.8,162.8,28.2,163.3z"/>
	</g>
</g>
<circle class="st2" cx="151.8" cy="117.9" r="6.2"/>
<ellipse transform="matrix(0.2723 -0.9622 0.9622 0.2723 -35.8324 222.3262)" class="st2" cx="129.1" cy="134.9" rx="6.2" ry="6.2"/>
<ellipse transform="matrix(0.524 -0.8517 0.8517 0.524 -71.1623 195.3873)" class="st2" cx="139.2" cy="161.4" rx="6.2" ry="6.2"/>
<ellipse transform="matrix(0.7361 -0.6769 0.6769 0.7361 -63.3074 155.2125)" class="st2" cx="167.4" cy="158.8" rx="6.2" ry="6.2"/>
<ellipse transform="matrix(0.8926 -0.4509 0.4509 0.8926 -40.5268 91.9057)" class="st2" cx="172.6" cy="131" rx="6.2" ry="6.2"/>
<ellipse class="st2" cx="150.1" cy="140.1" rx="8.6" ry="8.8"/>
<g>
	<path class="st6" d="M256.6,84.4c-0.4,0-8.3,1.2-8.3,1.2l1.3-3.7c0,0,0.6-2.8-0.3-3.8c-0.8-1-1.9-1.7-4.3-1.8s-4-0.1-4-0.1
		l-0.1-0.5c0,0,0.6-1.3,1.3-4.8c0,0,0-0.3-0.3-0.5c0,0-2.9-1.6-3.8-2.6l0.1-2.1c0,0,0-0.5-0.3-0.6c-0.4-0.1-3.8-1.1-5.5-0.2
		s-3,2.6-2.9,4.4c0.1,1.8,0.9,5.9,0.9,5.9s-2.6,0.4-3.3,0.9c-0.7,0.4-2.3,1.4-2.2,2.8c0,1.4,0.4,7.7,0.4,7.7s-2.8,0.1-3.5,0
		s-0.9-0.1-0.9,0.2c0,0.2,0.6,19.1,0.6,19.1l0.4,9.8l-0.2,0.3l-3.7,5.9l0.2,4.5l37.9,0.2l0.2-4.5l-3.7-6.9h-1.2L251,99l-5,0.1l1-6.1
		l1.2-0.1l0.1,0.5l1,0.4l4.1,0.4l0.6-0.1c0,0,0.2-0.2,0.2-0.4c0-0.2,0.2-2.5,0.2-2.5l1.6-0.1c0,0,0.5,0.1,0.7-0.5
		c0.2-0.6,0.4-4.7,0.4-5.2C257.2,84.7,257,84.3,256.6,84.4z M238.9,85.2c0.4-1.6,0.8-3.2,1.2-4.9c0.4-1.8,3.6-1.1,3.2,0.8
		c-0.4,1.6-0.8,3.2-1.2,4.9C241.6,87.9,238.4,87.1,238.9,85.2z M237.7,73.8c-0.2,0.6-0.3,1.1-0.5,1.7c-0.2,0.8-1.2,1.2-2,1
		c-0.9-0.2-1.4-1.1-1.2-1.8c0.2-0.6,0.3-1.1,0.5-1.7c0.2-0.8,1.2-1.2,2-1C237.4,72.2,237.9,73.1,237.7,73.8z M232.5,70.5
		c0.4-1.2,0.9-2.3,1.2-3.5c0.5-1.8,3.7-1.1,3.2,0.8c-0.3,1.2-0.8,2.4-1.2,3.5C235,73.1,231.8,72.3,232.5,70.5z M229.2,87.1
		c0.1-0.4,0.2-0.8,0.3-1.2c0.3-1.1,0.6-2.3,1-3.4c0.5-1.7,0.9-3.3,1.4-5c0.5-1.8,3.7-1.1,3.2,0.8c-0.5,1.7-1,3.5-1.5,5.2
		c-0.3,1.2-0.6,2.3-1,3.5c-0.2,0.7-0.3,1.6-0.9,2.1c-0.6,0.6-1.7,0.5-2.3,0c-0.7-0.6-0.6-1.5,0-2.1c-0.2,0.2-0.3,0.3-0.3,0.4
		c0,0,0,0,0,0c-0.1,0.3-0.3,0.3,0,0C229.1,87.4,229.2,87.2,229.2,87.1z M227.4,98.2c-0.1-1.9,3.2-1.9,3.3,0
		c0.2,3.6,0.5,7.2,0.7,10.7c0.1,0.9-0.8,1.4-1.6,1.5c-0.8,0.1-1.7,0.2-2.5,0.3c-0.9,0.1-1.6-0.8-1.6-1.5c0-0.9,0.8-1.4,1.6-1.5
		c0.3,0,0.5-0.1,0.8-0.1C227.8,104.6,227.6,101.4,227.4,98.2z M225.8,92.5c1.1-0.1,2.1-0.2,3.2-0.3c0.9-0.1,1.6,0.7,1.6,1.5
		c0,0.9-0.8,1.4-1.6,1.5c-1.1,0.1-2.1,0.2-3.2,0.3c-0.9,0.1-1.6-0.7-1.6-1.5C224.1,93.1,224.9,92.6,225.8,92.5z M224.8,116.5
		c2.3-0.3,4.5-0.6,6.8-0.9c0.9-0.1,1.8,0.2,2,1c0.2,0.7-0.3,1.7-1.2,1.8c-2.3,0.3-4.5,0.6-6.8,0.9c-0.9,0.1-1.8-0.2-2-1
		C223.4,117.6,223.9,116.6,224.8,116.5z M252.6,121.7c2.1,0,2.1,2.9,0,2.9c-1.3,0-2.6,0-3.8,0c-5.5,0-11.1,0-16.6,0
		c-3.5,0-6.9,0-10.4,0c-2.1,0-2.1-2.9,0-2.9c1.3,0,2.6,0,3.8,0c5.5,0,11.1,0,16.6,0C245.7,121.7,249.2,121.7,252.6,121.7z
		 M239.3,95.6c-0.9,0.1-1.8-0.2-2-1c-0.2-0.7,0.3-1.7,1.2-1.8c1.5-0.2,3-0.5,4.5-0.7c0.9-0.1,1.8,0.2,2,1c0.2,0.7-0.3,1.7-1.2,1.8
		C242.3,95.2,240.8,95.4,239.3,95.6z M240.7,120.6c-0.6,0.6-1.7,0.5-2.3,0c-0.7-0.6-1.3-1.1-2-1.7c-0.7-0.6-0.6-1.5,0-2.1
		c0.6-0.6,1.7-0.5,2.3,0c0.7,0.6,1.3,1.1,2,1.7C241.3,119.1,241.3,120,240.7,120.6z M238.3,104.7c-0.3,0.8-0.6,1.7-1,2.5
		c-0.3,0.8-1.1,1.2-2,1c-0.8-0.2-1.4-1.1-1.2-1.8c0.3-0.8,0.6-1.7,1-2.5c0.3-0.8,1.1-1.2,2-1C238,103.1,238.6,104,238.3,104.7z
		 M249.8,116c0.9,0.1,1.6,0.6,1.6,1.5c0,0.7-0.8,1.5-1.6,1.5c-2.3-0.2-4.6-0.4-7-0.6c-0.9-0.1-1.6-0.6-1.6-1.5
		c0-0.7,0.8-1.5,1.6-1.5C245.1,115.7,247.4,115.9,249.8,116z M252.4,92.5c-0.6,0.1-1.2,0.2-1.8,0.3c-0.9,0.1-1.7-0.2-2-1
		c-0.3-0.7,0.3-1.7,1.2-1.8c0.6-0.1,1.2-0.2,1.8-0.3c0.9-0.1,1.7,0.2,2,1C253.8,91.4,253.2,92.3,252.4,92.5z M255.1,88.5
		c-3.4,0.6-6.9,1.2-10.3,1.8c-3.4,0.6-6.9,1.2-10.4,1.5c-0.9,0.1-1.6-0.7-1.6-1.5c0-0.9,0.8-1.4,1.6-1.5c3.3-0.4,6.5-0.9,9.8-1.5
		c3.3-0.6,6.7-1.1,10-1.7c0.9-0.2,1.8,0.2,2,1C256.5,87.5,256,88.4,255.1,88.5z"/>
</g>
</svg>
