<?xml version="1.0" encoding="utf-8"?>
<!-- Generator: Adobe Illustrator 21.1.0, SVG Export Plug-In . SVG Version: 6.00 Build 0)  -->
<svg version="1.0" id="Layer_1" xmlns="http://www.w3.org/2000/svg" xmlns:xlink="http://www.w3.org/1999/xlink" x="0px" y="0px"
	 width="142.4px" height="59.5px" viewBox="0 0 142.4 59.5" style="enable-background:new 0 0 142.4 59.5;" xml:space="preserve">
<style type="text/css">
	.st0{fill:#FCFAFB;}
	.st1{fill:#FCFCFC;}
</style>
<title>clear-view-escapes</title>
<g>
	<path class="st0" d="M26.9,56.4h-6.3l-3-16.8l-3,16.8H8.4L2.9,30.7H9l2.7,17l3-17h6.2l3,17l2.6-17h6L26.9,56.4z"/>
	<path class="st0" d="M41.7,56.4h-7.5V30.7H42c6.3,0,9.2,4.9,9.2,12.7S48,56.4,41.7,56.4z M41.1,36.9H40v13.4h0.9
		c2.8,0,4.5-1,4.5-6.9S43.9,36.9,41.1,36.9z"/>
	<path class="st0" d="M62.6,56.8c-7.8,0-9.2-6.8-9.2-13.2s1.4-13.2,9.2-13.2c6.7,0,9,5.2,9,11.2h-5.8c-0.3-3.7-1.2-5-3.1-5
		c-2.9,0-3.3,3.2-3.3,7s0.2,7.1,3.3,7.1c2,0,2.8-1.2,3.1-5.1h5.8C71.6,51.9,69.3,56.8,62.6,56.8z"/>
	<path class="st0" d="M90.3,36.9v19.5h-5.8V36.9h-4.6v-6.1h15v6.1H90.3z"/>
	<path class="st0" d="M101.6,56.8c-6.4,0-7.8-5.6-7.8-10.6s1.4-10.7,7.8-10.7s7.8,5.7,7.8,10.7S108,56.8,101.6,56.8z M101.7,41.6
		c-1.8,0-2.6,1.4-2.6,4.7s0.8,4.6,2.5,4.6s2.6-1.3,2.6-4.6S103.5,41.6,101.7,41.6z"/>
	<path class="st0" d="M123.5,56.4l-0.9-2.4c-1,1.8-2.8,2.8-4.8,2.8c-5.5,0-6.2-3.9-6.2-8.9V36h5.7v11.6c0,2.7,0.5,3.3,1.8,3.3
		s1.9-0.6,1.9-3.3V36h5.7v20.5L123.5,56.4L123.5,56.4z"/>
	<path class="st0" d="M135.2,45.1v11.3h-5.7V36h3.2l0.9,2.5c1-2,3.2-3.2,5.4-2.8v6.6C135.7,41.7,135.2,42.5,135.2,45.1z"/>
</g>
<g>
	<path class="st1" d="M85.8,4.1c-17,0.1-32.6-2-37.3-2.2c-0.9,6-1.5,10-1.9,12.1h7.1l-0.2,0.6h-7L45,22.8c-0.4,2.3-1.5,4.1-3.2,5.4
		s-3.5,2-5.5,2v-0.6c1.4,0,2.4-0.3,2.8-0.9c0.4-0.6,0.8-2.1,1.2-4.4l1.7-9.7h-1.7l0.1-0.6h1.7l2.1-11.9c-4.4,0.4-7.7,1.3-10.1,2.8
		s-3.5,3.5-3.5,5.9c0,2,1.1,3.4,3.2,4.1c0.9,0.3,1.6,0.4,2.1,0.4c0.6,0,0.9,0,0.9,0V16h-0.2c-2.4,0-4.2-0.6-5.4-1.8
		c-0.9-0.8-1.3-1.9-1.3-3.4c0-3,1.6-5.4,4.8-7c3.2-1.7,7.7-2.5,13.5-2.5c3,0,28.5,2.7,37.7,2.2L85.8,4.1z"/>
	<path class="st1" d="M54.4,14.8c0.6-0.8,1.4-1.1,2.4-1.1s1.7,0.2,2.3,0.7c0.5,0.5,0.8,1.2,0.8,2.1v0.2c1-2,2.2-3,3.7-3
		c1.6,0,2.5,0.9,2.5,2.6c0,0.7-0.2,1.4-0.7,2.2c-0.5,0.8-0.9,1.5-1.4,2.3c-0.5,0.7-0.7,1.3-0.7,1.9h-0.8c0-0.8,0.5-1.9,1.4-3.2
		c0.9-1.3,1.4-2.4,1.4-3.1c0-0.7-0.1-1.2-0.4-1.5s-0.7-0.4-1.3-0.4s-1.1,0.2-1.7,0.7c-0.5,0.5-1,1.1-1.4,1.9c-0.6,1.1-1,2-1.1,2.7
		l0,0l-1.1,6.4h-3.8l2-11.9c-0.6,0.1-1.2,0.4-1.6,0.9L54.4,14.8z"/>
	<path class="st1" d="M73.6,13.6c2.7,0,4.1,1.1,4.1,3.2c0,1.3-0.6,2.4-1.9,3c-1.3,0.7-3.1,1-5.4,1.1c0,0.8-0.1,1.4-0.1,1.8
		c0,1,0.2,1.7,0.7,2.1c0.4,0.5,1,0.7,1.6,0.7c0.7,0,1.3-0.1,1.8-0.4s1-0.6,1.3-0.9c0.3-0.4,0.6-0.7,0.8-1.1c0.4-0.7,0.6-1.1,0.6-1.3
		l0.6,0.3c-0.1,0.3-0.3,0.8-0.6,1.4c-0.3,0.6-0.7,1-1.1,1.4s-0.9,0.7-1.7,1c-0.7,0.3-1.6,0.5-2.5,0.5c-1.7,0-3-0.4-3.9-1.2
		c-0.9-0.8-1.3-1.9-1.3-3.4c0-2.5,0.6-4.5,1.9-6S71.5,13.6,73.6,13.6z M76.3,15.1c-0.4-0.5-1-0.7-1.9-0.7c-0.8,0-1.6,0.5-2.4,1.5
		s-1.3,2.4-1.5,4.3c4.3,0,6.4-1.1,6.4-3.4C76.9,16.1,76.7,15.6,76.3,15.1z"/>
	<path class="st1" d="M90.5,26.3c-1.9,0-2.9-0.8-3.1-2.4c-0.9,1.6-2.1,2.4-3.6,2.4s-2.6-0.4-3.3-1.2c-0.8-0.8-1.1-1.9-1.1-3.4
		c0-2.5,0.6-4.5,1.8-5.9c1.2-1.4,2.7-2.2,4.6-2.2c1.1,0,1.9,0.3,2.5,1c0.3,0.3,0.4,0.6,0.5,0.8L90.5,6c-0.6,0.1-1.2,0.4-1.6,0.9
		l-0.5-0.4c0.6-0.8,1.4-1.1,2.4-1.1s1.7,0.2,2.3,0.7c0.5,0.5,0.8,1.2,0.8,2.1c0,0.2,0,0.4-0.1,0.8c-1,5.9-2.1,11.4-3,16.7
		c0.6-0.1,1.2-0.4,1.6-0.9l0.5,0.4C92.2,25.9,91.4,26.3,90.5,26.3z M83.3,25.1c0.2,0.4,0.5,0.5,1,0.5s0.9-0.1,1.3-0.4s0.7-0.7,1-1.1
		c0.5-0.8,0.9-1.5,1.1-2l0.9-5c0-0.7-0.3-1.3-0.7-1.9c-0.4-0.6-1.1-0.8-2.1-0.8c-0.7,0-1.3,1-1.9,3S83,21.3,83,23.2
		C83,24,83.1,24.7,83.3,25.1z"/>
	<path class="st1" d="M98.5,5.9c-0.4-0.4-0.7-1-0.7-1.6s0.2-1.2,0.7-1.6c0.4-0.5,1-0.7,1.6-0.7s1.2,0.2,1.6,0.7
		c0.5,0.5,0.7,1,0.7,1.6c0,1-0.5,2.1-1.4,3.3c-0.9,1.1-2.2,2-3.9,2.5l-0.3-0.7c1-0.3,1.8-0.7,2.4-1.2c0.7-0.5,1.1-0.9,1.3-1.2
		l0.3-0.5c-0.2,0.1-0.4,0.1-0.7,0.1C99.5,6.6,98.9,6.4,98.5,5.9z"/>
	<path class="st1" d="M101.1,25.5c2.1,0,3.2-1.6,3.2-4.7c0-0.8-0.1-1.7-0.3-2.7c-0.2-1-0.4-1.7-0.4-1.9c-1.3,1.3-2.8,2.1-4.4,2.4
		v-0.8c1.5-0.3,3-1.2,4.3-2.6v-0.1c0-0.5,0.1-1,0.2-1.5s0.3-0.9,0.4-1.1l0.2-0.4h0.8c0,0.9,0.1,1.8,0.4,2.6c0.3,0.8,0.6,1.4,1,1.9
		s0.7,1.1,1,1.9s0.4,1.6,0.4,2.6c0,1.5-0.6,2.8-1.7,3.8s-2.5,1.5-4.1,1.5s-2.8-0.4-3.6-1.1s-1.2-1.6-1.2-2.6c0-0.9,0.2-1.6,0.7-2
		s1-0.6,1.7-0.6c0.6,0,1.2,0.2,1.6,0.6s0.6,0.9,0.6,1.6c0,0.6-0.2,1.2-0.6,1.6s-0.9,0.7-1.6,0.7c-0.3,0-0.6,0-0.9-0.1
		C99.3,25.2,100,25.5,101.1,25.5z"/>
</g>
</svg>
