<?xml version="1.0" encoding="utf-8"?>
<!-- Generator: Adobe Illustrator 21.1.0, SVG Export Plug-In . SVG Version: 6.00 Build 0)  -->
<svg version="1.0" id="Layer_1" xmlns="http://www.w3.org/2000/svg" xmlns:xlink="http://www.w3.org/1999/xlink" x="0px" y="0px"
	 width="56px" height="64px" viewBox="0 0 56 64" style="enable-background:new 0 0 56 64;" xml:space="preserve">
<style type="text/css">
	.st0{fill:#D4953D;}
</style>
<title>Untitled-2</title>
<g>
	<g>
		<path class="st0" d="M53.9,34.8c0,0-1.6-2.8,0-5.1s-0.9-3.2-1.2-2.4s-1.6,3-3,0s-6.3-6.9-6.3-6.9c2.9-2.3,1-5.9,0.6-6.3
			s-0.4,1.1-0.9,1.5s-3.2,0-4.2,0.9c-1,0.9-2.1,0-2.1,0s-0.1-3.9-0.3-6.9s-3-0.3-3-0.3c-1.8-0.3-5.9-3.4-7.2-4.5
			C25,3.7,24.8,3,25.4,2.1s0-2.1-1.5-1.2s-3.9,2.4-3.6,6s-0.9,3.3-3,5.4s-3,6.3-3,6.3s-0.9,0.8-2.4,1.8c-0.8,0.5-0.9-0.5-1.3-1.3
			C10.3,18.5,9.5,18,9.5,18c-2,0.6-1.7,5.2-2,5.6c-10.4,10.8-6.9,22-3.1,31.9c4.5-4.6,17-8.3,29.1-8.1s18.3,5.1,18.3,5.1
			s1.5-2.9,3-7.2S53.9,34.8,53.9,34.8z M28.4,55.5c-11.9,0.4-19,4.5-21,8.2h41.5C47.4,60,42,55,28.4,55.5z"/>
	</g>
</g>
</svg>
