<?xml version="1.0" encoding="utf-8"?>
<!-- Generator: Adobe Illustrator 21.1.0, SVG Export Plug-In . SVG Version: 6.00 Build 0)  -->
<svg version="1.0" id="Layer_1" xmlns="http://www.w3.org/2000/svg" xmlns:xlink="http://www.w3.org/1999/xlink" x="0px" y="0px"
	 width="42px" height="42px" viewBox="0 0 42 42" style="enable-background:new 0 0 42 42;" xml:space="preserve">
<style type="text/css">
	.st0{fill:#FFFFFF;}
</style>
<title>instagram</title>
<path class="st0" d="M36.6,34.9v-17h-3.5c0.4,1.1,0.5,2.3,0.5,3.4c0,2.2-0.6,4.3-1.7,6.1c-1.1,1.8-2.7,3.4-4.6,4.4
	c-1.9,1.1-4.1,1.6-6.3,1.6c-3.3,0-6.5-1.2-8.8-3.6c-2.4-2.2-3.7-5.4-3.7-8.6c0-1.2,0.1-2.3,0.5-3.4H5.3v17.1c0,0.9,0.7,1.6,1.5,1.6
	c0,0,0,0,0,0H35c0.4,0,0.8-0.2,1.1-0.5C36.4,35.8,36.6,35.4,36.6,34.9z M29.1,20.9c0-2.1-0.8-4.1-2.4-5.6c-1.5-1.5-3.6-2.3-5.8-2.3
	c-2.1,0-4.2,0.8-5.7,2.3c-1.5,1.4-2.4,3.4-2.4,5.6c0,2.1,0.8,4.1,2.4,5.6c1.5,1.5,3.6,2.3,5.7,2.3c2.2,0,4.2-0.8,5.8-2.3
	C28.3,25,29.2,23,29.1,20.9z M36.6,11.5V7.1c0-0.5-0.2-0.9-0.5-1.3c-0.3-0.3-0.8-0.5-1.3-0.5h-4.6c-0.5,0-0.9,0.2-1.3,0.5
	c-0.3,0.3-0.5,0.8-0.5,1.3v4.3c0,1,0.8,1.8,1.7,1.8c0,0,0,0,0,0h4.6C35.8,13.3,36.6,12.5,36.6,11.5C36.6,11.5,36.6,11.5,36.6,11.5
	L36.6,11.5L36.6,11.5z M41.2,6v30c0,2.8-2.3,5.2-5.2,5.2H6c-1.4,0-2.7-0.5-3.6-1.5c-1-1-1.5-2.3-1.5-3.6V6c0-1.4,0.5-2.7,1.5-3.6
	c1-1,2.3-1.5,3.6-1.5h30c1.4,0,2.7,0.5,3.6,1.5C40.6,3.3,41.2,4.6,41.2,6z"/>
</svg>
