<?xml version="1.0" encoding="utf-8"?>
<!-- Generator: Adobe Illustrator 21.1.0, SVG Export Plug-In . SVG Version: 6.00 Build 0)  -->
<svg version="1.0" id="Layer_1" xmlns="http://www.w3.org/2000/svg" xmlns:xlink="http://www.w3.org/1999/xlink" x="0px" y="0px"
	 width="64px" height="64px" viewBox="0 0 64 64" style="enable-background:new 0 0 64 64;" xml:space="preserve">
<style type="text/css">
	.st0{fill:#D1933C;}
</style>
<title>rain</title>
<g>
	<path class="st0" d="M51.6,21.4c-0.4,0-8.3,1.2-8.3,1.2l1.3-3.7c0,0,0.6-2.8-0.3-3.8c-0.8-1-1.9-1.7-4.3-1.8s-4-0.1-4-0.1l-0.1-0.5
		c0,0,0.6-1.3,1.3-4.8c0,0,0-0.3-0.3-0.5c0,0-2.9-1.6-3.8-2.6l0.1-2.1c0,0,0-0.5-0.3-0.6C32.5,2,29.1,1,27.4,1.9s-3,2.6-2.9,4.4
		s0.9,5.9,0.9,5.9s-2.6,0.4-3.3,0.9c-0.7,0.4-2.3,1.4-2.2,2.8c0,1.4,0.4,7.7,0.4,7.7s-2.8,0.1-3.5,0s-0.9-0.1-0.9,0.2
		c0,0.2,0.6,19.1,0.6,19.1l0.4,9.8L16.7,53L13,58.9l0.2,4.5l37.9,0.2l0.2-4.5l-3.7-6.9h-1.2L46,36l-5,0.1l1-6.1l1.2-0.1l0.1,0.5
		l1,0.4l4.1,0.4l0.6-0.1c0,0,0.2-0.2,0.2-0.4c0-0.2,0.2-2.5,0.2-2.5l1.6-0.1c0,0,0.5,0.1,0.7-0.5s0.4-4.7,0.4-5.2
		C52.2,21.7,52,21.3,51.6,21.4z M33.9,22.2c0.4-1.6,0.8-3.2,1.2-4.9c0.4-1.8,3.6-1.1,3.2,0.8c-0.4,1.6-0.8,3.2-1.2,4.9
		C36.6,24.9,33.4,24.1,33.9,22.2z M32.7,10.8c-0.2,0.6-0.3,1.1-0.5,1.7c-0.2,0.8-1.2,1.2-2,1c-0.9-0.2-1.4-1.1-1.2-1.8
		c0.2-0.6,0.3-1.1,0.5-1.7c0.2-0.8,1.2-1.2,2-1C32.4,9.2,32.9,10.1,32.7,10.8z M27.5,7.5c0.4-1.2,0.9-2.3,1.2-3.5
		c0.5-1.8,3.7-1.1,3.2,0.8c-0.3,1.2-0.8,2.4-1.2,3.5C30,10.1,26.8,9.3,27.5,7.5z M24.2,24.1c0.1-0.4,0.2-0.8,0.3-1.2
		c0.3-1.1,0.6-2.3,1-3.4c0.5-1.7,0.9-3.3,1.4-5c0.5-1.8,3.7-1.1,3.2,0.8c-0.5,1.7-1,3.5-1.5,5.2c-0.3,1.2-0.6,2.3-1,3.5
		c-0.2,0.7-0.3,1.6-0.9,2.1c-0.6,0.6-1.7,0.5-2.3,0c-0.7-0.6-0.6-1.5,0-2.1c-0.2,0.2-0.3,0.3-0.3,0.4l0,0c-0.1,0.3-0.3,0.3,0,0
		C24.1,24.4,24.2,24.2,24.2,24.1z M22.4,35.2c-0.1-1.9,3.2-1.9,3.3,0c0.2,3.6,0.5,7.2,0.7,10.7c0.1,0.9-0.8,1.4-1.6,1.5
		s-1.7,0.2-2.5,0.3c-0.9,0.1-1.6-0.8-1.6-1.5c0-0.9,0.8-1.4,1.6-1.5c0.3,0,0.5-0.1,0.8-0.1C22.8,41.6,22.6,38.4,22.4,35.2z
		 M20.8,29.5c1.1-0.1,2.1-0.2,3.2-0.3c0.9-0.1,1.6,0.7,1.6,1.5c0,0.9-0.8,1.4-1.6,1.5c-1.1,0.1-2.1,0.2-3.2,0.3
		c-0.9,0.1-1.6-0.7-1.6-1.5C19.1,30.1,19.9,29.6,20.8,29.5z M19.8,53.5c2.3-0.3,4.5-0.6,6.8-0.9c0.9-0.1,1.8,0.2,2,1
		c0.2,0.7-0.3,1.7-1.2,1.8c-2.3,0.3-4.5,0.6-6.8,0.9c-0.9,0.1-1.8-0.2-2-1C18.4,54.6,18.9,53.6,19.8,53.5z M47.6,58.7
		c2.1,0,2.1,2.9,0,2.9c-1.3,0-2.6,0-3.8,0c-5.5,0-11.1,0-16.6,0c-3.5,0-6.9,0-10.4,0c-2.1,0-2.1-2.9,0-2.9c1.3,0,2.6,0,3.8,0
		c5.5,0,11.1,0,16.6,0C40.7,58.7,44.2,58.7,47.6,58.7z M34.3,32.6c-0.9,0.1-1.8-0.2-2-1c-0.2-0.7,0.3-1.7,1.2-1.8
		c1.5-0.2,3-0.5,4.5-0.7c0.9-0.1,1.8,0.2,2,1c0.2,0.7-0.3,1.7-1.2,1.8C37.3,32.2,35.8,32.4,34.3,32.6z M35.7,57.6
		c-0.6,0.6-1.7,0.5-2.3,0c-0.7-0.6-1.3-1.1-2-1.7s-0.6-1.5,0-2.1s1.7-0.5,2.3,0c0.7,0.6,1.3,1.1,2,1.7C36.3,56.1,36.3,57,35.7,57.6z
		 M33.3,41.7c-0.3,0.8-0.6,1.7-1,2.5c-0.3,0.8-1.1,1.2-2,1c-0.8-0.2-1.4-1.1-1.2-1.8c0.3-0.8,0.6-1.7,1-2.5c0.3-0.8,1.1-1.2,2-1
		C33,40.1,33.6,41,33.3,41.7z M44.8,53c0.9,0.1,1.6,0.6,1.6,1.5c0,0.7-0.8,1.5-1.6,1.5c-2.3-0.2-4.6-0.4-7-0.6
		c-0.9-0.1-1.6-0.6-1.6-1.5c0-0.7,0.8-1.5,1.6-1.5C40.1,52.7,42.4,52.9,44.8,53z M47.4,29.5c-0.6,0.1-1.2,0.2-1.8,0.3
		c-0.9,0.1-1.7-0.2-2-1c-0.3-0.7,0.3-1.7,1.2-1.8c0.6-0.1,1.2-0.2,1.8-0.3c0.9-0.1,1.7,0.2,2,1C48.8,28.4,48.2,29.3,47.4,29.5z
		 M50.1,25.5c-3.4,0.6-6.9,1.2-10.3,1.8c-3.4,0.6-6.9,1.2-10.4,1.5c-0.9,0.1-1.6-0.7-1.6-1.5c0-0.9,0.8-1.4,1.6-1.5
		c3.3-0.4,6.5-0.9,9.8-1.5s6.7-1.1,10-1.7c0.9-0.2,1.8,0.2,2,1C51.5,24.5,51,25.4,50.1,25.5z"/>
</g>
</svg>
