<?xml version="1.0" encoding="utf-8"?>
<!-- Generator: Adobe Illustrator 21.1.0, SVG Export Plug-In . SVG Version: 6.00 Build 0)  -->
<svg version="1.0" id="Layer_1" xmlns="http://www.w3.org/2000/svg" xmlns:xlink="http://www.w3.org/1999/xlink" x="0px" y="0px"
	 width="60px" height="64px" viewBox="0 0 60 64" style="enable-background:new 0 0 60 64;" xml:space="preserve">
<style type="text/css">
	.st0{fill:#D4953F;}
</style>
<title>wifi</title>
<g>
	<g>
		<path class="st0" d="M43.9,30.1c0-5.5-7.2-11.2-13.4-11.2s-12.3,5.3-14.2,11.9c3.5-2.1,7.5-3.3,14.2-3.4
			C37.4,27.4,43.9,30.1,43.9,30.1z M13.6,41.3c2-0.9,7.7-3.3,17.7-3.2s16.2,2.8,16.2,2.8v-1.6c1.3-2.1,0.7-2.7,0.1-3.7
			c-0.7-1.1-4.5-4.8-16.8-5.1c-8-0.2-13.2,2.5-14.7,3.2s-4.8,3-2.5,6V41.3z M33.6,17.3v-3.6c0,0-1.1-1.7-3.1-1.7
			c-2,0.1-3.4,0.8-3.5,1.9l-0.1,3.4C27.8,16.5,30.9,15.1,33.6,17.3z M28.4,9.9c1.2-0.4,3-0.5,4-0.1l-1-2L30.9,6l0.5-1.9
			c0,0-0.6-2.9-1.1-2.8c-0.5,0.1-0.9,0.9-0.8,1.6c0,0.7-0.2,0.8-0.2,0.8l0.2,1.1l0.3,1.3c0,0,0.1,1.1-0.3,1.8
			C28.9,8.8,28.6,9.6,28.4,9.9z M31.8,43.3c15.5-0.4,19.7,5.6,19.7,5.6c1.2-0.8,0.3-4.1-1.1-4.7c-5.6-2.3-8.1-3.6-18.6-3.6
			s-17.1,2.3-19.6,3.6s-2.9,3.2-1.9,5.3C12.1,46.5,16.3,43.8,31.8,43.3z M31.4,46.8c-14.8,0.2-16.6,3.3-20.8,6v4.6h9.1l0.9-1.6
			l19.1-6l11.4,3.9v-1.6C45.1,47.8,43.6,46.5,31.4,46.8z M39.9,53.7l-18.7,5.2L20.4,60h-20v3.2l59.1-0.1v-3.3L39.9,53.7z"/>
	</g>
</g>
</svg>
