<?xml version="1.0" encoding="utf-8"?>
<!-- Generator: Adobe Illustrator 21.1.0, SVG Export Plug-In . SVG Version: 6.00 Build 0)  -->
<svg version="1.0" id="Layer_1" xmlns="http://www.w3.org/2000/svg" xmlns:xlink="http://www.w3.org/1999/xlink" x="0px" y="0px"
	 width="34.8px" height="42px" viewBox="0 0 34.8 42" style="enable-background:new 0 0 34.8 42;" xml:space="preserve">
<style type="text/css">
	.st0{fill:#FFFFFF;}
</style>
<title>youtube</title>
<path class="st0" d="M21.9,28.8v4.8c0,1-0.3,1.5-0.9,1.5c-0.4,0-0.8-0.2-1-0.5v-6.8c0.3-0.3,0.6-0.5,1-0.5
	C21.7,27.3,21.9,27.8,21.9,28.8z M29.5,28.8v1h-2v-1c0-1,0.3-1.5,1-1.5S29.5,27.8,29.5,28.8L29.5,28.8L29.5,28.8z M7.8,23.9h2.4
	v-2.1h-7v2.1h2.4v12.8h2.2V23.9z M14.3,36.8h2V25.6h-2v8.5c-0.2,0.5-0.7,0.9-1.3,1c-0.3,0-0.5-0.2-0.5-0.5c0,0,0,0,0,0l0,0
	c0-0.3,0-0.5,0-0.8v-8.2h-2.1v8.8c0,0.6,0,1.1,0.2,1.6c0.2,0.6,0.7,0.9,1.3,0.8c0.9-0.1,1.8-0.6,2.3-1.4
	C14.3,35.6,14.3,36.8,14.3,36.8z M23.9,33.4V29c0-0.8,0-1.5-0.2-2.2c-0.2-0.8-0.8-1.3-1.6-1.3c-0.9,0.1-1.6,0.5-2.1,1.3v-4.9h-2
	v14.9h2v-1.1c0.5,0.7,1.2,1.2,2.1,1.3c0.8,0,1.4-0.5,1.6-1.3C23.9,34.9,24,34.2,23.9,33.4L23.9,33.4z M31.6,33.2v-0.3h-2.1
	c0,0.5,0,0.9,0,1.4c0,0.5-0.4,0.8-0.9,0.8c-0.7,0-1-0.5-1-1.5v-2h4v-2.3c0.1-0.9-0.2-1.8-0.6-2.6c-1.1-1.3-3-1.5-4.3-0.5
	c-0.2,0.1-0.3,0.3-0.5,0.5c-0.5,0.8-0.7,1.7-0.6,2.6v3.9c-0.1,0.9,0.1,1.8,0.6,2.6c0.6,0.8,1.5,1.2,2.4,1.2c1.4,0.1,2.7-1,2.9-2.4
	C31.5,34.1,31.5,33.6,31.6,33.2L31.6,33.2L31.6,33.2z M17.9,12.6V7.9c0-1-0.3-1.5-1-1.5s-1,0.5-1,1.5v4.7c0,1.1,0.3,1.6,1,1.6
	S17.9,13.7,17.9,12.6z M34.1,29.5c0.1,2.6-0.1,5.3-0.6,7.9c-0.2,0.9-0.7,1.6-1.3,2.2c-0.6,0.6-1.4,1-2.3,1
	c-4.2,0.4-8.3,0.5-12.5,0.5c-4.2,0.1-8.3-0.1-12.5-0.5c-0.9-0.1-1.7-0.5-2.3-1c-0.7-0.6-1.1-1.4-1.3-2.2c-0.5-2.6-0.7-5.2-0.6-7.9
	c-0.1-2.6,0.1-5.3,0.6-7.9c0.2-0.9,0.7-1.6,1.3-2.2c0.6-0.6,1.5-1,2.3-1.1c2.7-0.3,6.9-0.5,12.5-0.5s9.7,0.2,12.5,0.5
	c1.8,0.2,3.2,1.5,3.6,3.3C34,24.3,34.1,26.9,34.1,29.5z M11.6,0.8h2.3l-2.7,9v6.1H8.9V9.8C8.6,8.2,8.1,6.6,7.5,5
	C7,3.5,6.5,2.1,6.1,0.8h2.4l1.6,5.9L11.6,0.8z M19.9,8.3v3.9c0.1,0.9-0.1,1.9-0.6,2.7c-0.6,0.8-1.5,1.2-2.4,1.1
	c-0.9,0-1.8-0.4-2.4-1.1c-0.5-0.8-0.7-1.7-0.6-2.7V8.3c-0.1-0.9,0.2-1.8,0.6-2.6c0.5-0.8,1.4-1.2,2.4-1.1c0.9-0.1,1.8,0.4,2.4,1.1
	C19.7,6.5,20,7.4,19.9,8.3z M27.5,4.7v11.2h-2v-1.2c-0.5,0.8-1.4,1.3-2.3,1.4c-0.6,0-1.1-0.3-1.3-0.8c-0.1-0.6-0.2-1.1-0.2-1.7V4.7
	h2v8.3c0,0.3,0,0.5,0,0.8c0,0.3,0.2,0.5,0.4,0.5c0,0,0,0,0,0l0,0c0.5-0.1,1-0.5,1.3-1V4.7H27.5L27.5,4.7z"/>
</svg>
